<svg xmlns="http://www.w3.org/2000/svg" xmlns:xlink="http://www.w3.org/1999/xlink" width="429.313" height="266.637" xmlns:v="https://vecta.io/nano"><style><![CDATA[.B{fill:#263238}.C{fill:#e0e0e0}.D{fill:#ebebeb}.E{fill:#fff}.F{fill:#ffbe9d}.G{fill:#455a64}.H{fill:#eb996e}.I{fill:#8c5249}.J{fill:#e8505b}.K{fill:#fafafa}.L{fill:#a86e63}.M{fill:#f5f5f5}]]></style><path d="M5.87 100.91s-6.754 3 1.624 17.27 14 21.25 14 21.25 1.534 3.337-1.3 4.038-9.236.065-10.31 3.66c-1.113 3.728 1.742 7.014 7.295 9.716s17.5 9.07 18.582 9.65c1.06.57 2.177 2.1.316 2.886s-16.015 3.117-14.508 9.767 18.215 11.635 20.034 12.215 2.285 1.308 2.2 2.3-4.918 1.318-8.917 2.145-8.5 2.487-7.3 6.25 11.354 11.22 35.016 12.132l10.992-.294 5.422-9.62c10.348-21.3 8.565-33.776 5.807-36.6s-6.34.354-8.954 3.5-5.187 7.24-6.1 6.853-1.328-1.143-.984-3.018 3.824-18.96-1.33-23.424-13.88 6.92-15.453 8.2-2.393-.438-2.4-1.64l.25-20.936c.235-6.172-1.318-10.238-5.13-11.014-3.676-.75-6.13 5.188-8.088 7.366s-4.18-.748-4.18-.748-3.5-8.256-12.134-22.373-14.59-9.43-14.59-9.43" class="D"/><g class="C"><path d="M74.31 216.435l-26.624-45.02L23.46 130.58l-9.43-15.692-.516-.877-.166-.3a6.81 6.81 0 0 0 .2.287l.545.86 2.068 3.322 7.506 12.28 24.315 40.786 26.537 45.07"/><path d="M18.795 148.376a3.56 3.56 0 0 1 .777.168l2.08.595 6.777 2.235 6.725 2.377 2.04.707c.257.068.506.166.74.3a3.58 3.58 0 0 1-.779-.162l-2.08-.605-6.76-2.284-6.74-2.327-2.046-.7a3.53 3.53 0 0 1-.738-.294zM38.643 154c-.1-.027 1.32-5.042 3.15-11.2s3.385-11.13 3.475-11.1-1.32 5.04-3.15 11.2L38.643 154zm13.377 25.176a3.75 3.75 0 0 1 .405-.7l1.195-1.855 3.822-6.2 3.544-6.353 1.04-1.947a3.72 3.72 0 0 1 .416-.7c-.072.262-.173.516-.3.756l-.943 2-3.464 6.417-3.915 6.15-1.286 1.8c-.148.225-.32.433-.513.62zm-19.075-1.136a3.22 3.22 0 0 1 .75-.031l2.04.04 6.724.264 6.72.364 2.035.15a3.19 3.19 0 0 1 .744.1 3.14 3.14 0 0 1-.75.03l-2.04-.04-6.725-.264-6.72-.364-2.035-.15a3.17 3.17 0 0 1-.742-.1zm8.985 23.725c.318-.04.64-.05.96-.03l2.614.043 8.62.27 8.618.37 2.6.152c.32.004.64.037.956.1-.318.04-.64.05-.96.03l-2.615-.043-8.62-.27-8.617-.37-2.6-.15a5.31 5.31 0 0 1-.956-.1zm23.802.72a5.93 5.93 0 0 1 .491-.9l1.43-2.407 4.6-8.006 4.317-8.162 1.273-2.494a5.94 5.94 0 0 1 .5-.9 5.99 5.99 0 0 1-.382.955l-1.176 2.543-4.234 8.22-4.688 7.967-1.523 2.352c-.178.294-.38.573-.607.832z"/></g><path d="M355.793 184.83c-15.214-10.793-18.54-30.648-17.808-48.47.122-2.975-.183-6.114 1.252-8.714s4.75-4.36 7.4-3.088c2.2 1.056 3.147 3.633 4.368 5.768a17.4 17.4 0 0 0 6.93 6.715c1.887 1 4.227 1.615 6.105.6 2.577-1.4 2.9-4.94 2.908-7.9q.008-8.274.016-16.547a27.59 27.59 0 0 1 .956-8.783c.94-2.8 2.994-5.4 5.814-6.165s6.29.88 6.865 3.78a27.4 27.4 0 0 1 .057 3.685c.074 1.23.636 2.592 1.8 2.943s2.368-.475 3.26-1.335c3.076-2.966 5.176-6.8 7.14-10.615s3.873-7.72 6.668-10.958 6.648-5.794 10.887-6 8.737 2.44 9.778 6.607-1.42 8.4-4.093 11.754c-3.965 4.978-8.628 9.357-13.845 13-1.014.552-1.827 1.412-2.32 2.457-.657 1.968 1.2 3.94 3.142 4.6 2.2.75 4.6.54 6.9.827s4.8 1.324 5.655 3.51c1.2 3.034-1.362 6.186-3.866 8.244-5.016 4.124-10.705 7.353-16.817 9.547-2.183.78-4.48 1.463-6.245 2.98s-2.845 4.17-1.8 6.26 3.764 2.78 6.047 2.374 4.333-1.63 6.512-2.434c4.077-1.506 9.328-1.188 11.907 2.346 1.593 2.464 1.94 5.53.937 8.288a21.6 21.6 0 0 1-4.539 7.282 56.9 56.9 0 0 1-24.42 16.9c-9.457 3.2-18.2 4.026-27.556.53" class="D"/><g class="C"><path d="M360.475 173.69a264.96 264.96 0 0 1 10.731-28.474l3.2-7.32 3.266-7.045c2.248-4.344 4.735-8.56 7.45-12.63 2.563-3.9 5.138-7.512 7.57-10.87s4.774-6.437 7.022-9.156a105.05 105.05 0 0 1 11.546-12.03 96.59 96.59 0 0 1 3.447-2.939l.92-.736a2.2 2.2 0 0 1 .324-.235 2.15 2.15 0 0 1-.289.279l-.884.777-3.376 3.013c-4.094 3.75-7.9 7.8-11.4 12.12-2.222 2.726-4.532 5.816-6.953 9.176s-4.972 6.98-7.52 10.88a133.8 133.8 0 0 0-7.392 12.595c-1.157 2.254-2.19 4.614-3.246 7.02l-3.193 7.316c-4.1 9.26-7.7 18.74-10.75 28.4"/><path d="M377.825 130.833a5.95 5.95 0 0 1-.28-1.264l-.524-3.486c-.4-2.95-.807-7.04-1.24-11.554s-.9-8.59-1.342-11.525l-.543-3.473c-.1-.422-.152-.853-.156-1.286a5.98 5.98 0 0 1 .363 1.243c.2.807.45 1.988.715 3.453.54 2.93 1.07 7.014 1.5 11.533l1.083 11.564.352 3.5c.07.428.096.862.073 1.295z"/><path d="M415.923 123.996a8.21 8.21 0 0 1-1.518.171l-4.134.378c-3.487.35-8.287 1-13.552 1.957s-9.992 2.037-13.4 2.913l-4.017 1.065a8.09 8.09 0 0 1-1.488.354 8.18 8.18 0 0 1 1.426-.559 73.62 73.62 0 0 1 3.98-1.237c3.38-.975 8.112-2.112 13.392-3.078a134.18 134.18 0 0 1 13.615-1.8c1.753-.14 3.175-.2 4.158-.2a7.99 7.99 0 0 1 1.528.036zm-54.975 48.997a1.95 1.95 0 0 1-.258-.466l-.64-1.38-2.2-5.148c-1.8-4.372-4.107-10.5-6.556-17.274l-6.4-17.32-2.04-5.2-.548-1.42a1.96 1.96 0 0 1-.157-.511c.106.143.193.3.258.467l.64 1.38c.55 1.2 1.3 2.962 2.2 5.15 1.8 4.37 4.107 10.5 6.557 17.277l6.4 17.32 2.04 5.2.548 1.42a2 2 0 0 1 .156.51z"/><path d="M411.624 157.062c-.157.09-.325.156-.5.2l-1.472.482-5.427 1.715-17.85 5.827-17.91 5.677-5.48 1.548-1.5.383c-.172.057-.352.09-.533.1.157-.088.325-.156.5-.2l1.472-.48 5.426-1.715 17.854-5.827 17.908-5.677 5.48-1.548 1.5-.383c.172-.058.352-.093.533-.102z"/></g><path d="M195.728 34.563c-.843-2.238-2.353-4.164-4.326-5.516-1.882-1.398-4.155-2.172-6.5-2.21a9.05 9.05 0 0 0-8.682 6.75 9.04 9.04 0 0 0-10.477-2.03c-2.095 1.05-3.808 2.727-4.9 4.8-1.194 2.072-1.723 4.46-1.514 6.844a14.2 14.2 0 0 0 3.659 8.127 20.1 20.1 0 0 0 8.187 4.788l11.577 3.66s4.072-4.787 7.878-8.446c2.372-2.158 4.193-4.852 5.31-7.858a14.2 14.2 0 0 0-.213-8.907z" class="D"/><path d="M208.477 10.2c.32-1.158.278-2.387-.122-3.52-.35-1.125-1.043-2.112-1.982-2.822a4.55 4.55 0 0 0-5.524.167c-.232-1.965-1.7-3.554-3.652-3.928a5.62 5.62 0 0 0-3.412.5 5.85 5.85 0 0 0-2.643 2.33 7.14 7.14 0 0 0-.923 4.383 10.1 10.1 0 0 0 1.9 4.37l3.615 4.915 5.7-1.094a10.1 10.1 0 0 0 4.484-1.616 7.14 7.14 0 0 0 2.56-3.684zm74.1 27.584a4.33 4.33 0 0 0-.3-2.582 4.16 4.16 0 0 0-1.626-1.957c-1.298-.78-2.958-.596-4.052.452a3.37 3.37 0 0 0-.6-1.344 3.41 3.41 0 0 0-2.319-1.328 4.16 4.16 0 0 0-2.48.57 4.32 4.32 0 0 0-1.8 1.87 5.27 5.27 0 0 0-.418 3.278c.3 1.15.868 2.214 1.66 3.1l2.95 3.4 4.128-1.143c1.167-.223 2.265-.722 3.2-1.455a5.26 5.26 0 0 0 1.655-2.86z" class="M"/><path d="M143.018 11.23V89H42.57l-3.62-77.228z" class="C"/><path d="M38.952 88.998V11.68H139.4v77.318z" class="E"/><path d="M139.783 89.382H38.568V11.296h101.215zM39.34 88.614h99.68v-76.55H39.34z" class="C"/><path d="M49.83 19.626h78.69V78.82H49.83z" class="E"/><g class="C"><path d="M128.52 19.626l-.38.01-1.107.01-4.286.022-16.14.048-56.775.1.18-.18.02 59.194-.2-.2 78.69.036-.164.164.085-42.983.06-15.12.017-1.09s.012.353.018 1.056l.018 3.122.042 11.932.085 43.25h-.164l-78.89.036v-.206l.02-59.37h.18l78.692.18z"/><path d="M38.952 11.5a10 10 0 0 1 1.7 1.043l3.922 2.774 3.788 2.96a9.31 9.31 0 0 1 1.47 1.35 10.42 10.42 0 0 1-1.643-1.128l-3.852-2.86-3.85-2.868a9.92 9.92 0 0 1-1.534-1.27zm100.448.18a57.01 57.01 0 0 1-5.326 4.134c-1.776 1.38-3.632 2.652-5.558 3.812 1.7-1.482 3.468-2.862 5.322-4.134a56.96 56.96 0 0 1 5.562-3.812z"/></g><path d="M139.4 88.997L128.12 78.82" class="E"/><path d="M128.12 78.82a72.42 72.42 0 0 1 5.773 4.94 72.49 72.49 0 0 1 5.506 5.237 72.12 72.12 0 0 1-5.773-4.94 72.23 72.23 0 0 1-5.506-5.237zM38.952 88.998a66.12 66.12 0 0 1 5.25-5.008 66.1 66.1 0 0 1 5.518-4.712c-1.657 1.764-3.4 3.436-5.25 5.008a65.88 65.88 0 0 1-5.518 4.712z" class="C"/><path d="M108.158 48.686a9.5 9.5 0 0 1-17.261 3.198 9.5 9.5 0 0 1 9.948-14.464 9.5 9.5 0 0 1 7.313 11.266z" class="M"/><g class="C"><path d="M95.784 55.73c.196-.898.472-1.776.824-2.625a15.79 15.79 0 0 0 .869-6.385 8.9 8.9 0 0 0-2.776-5.6 16.38 16.38 0 0 0-2.257-1.459 4.07 4.07 0 0 1 2.59 1.057 8.71 8.71 0 0 1 3.182 5.925 13.99 13.99 0 0 1-1.113 6.642c-.29.888-.736 1.716-1.32 2.445z"/><path d="M108.04 45.56c-.045.218-2.562-.694-5.522.19-2.968.86-4.592 2.99-4.747 2.83-.075-.053.216-.654.965-1.42 2.022-2.02 4.93-2.874 7.724-2.27 1.044.24 1.614.588 1.58.672z"/><path d="M103.753 45.078c-.12-.01-.067-.666-.41-1.6-.394-1.222-1.317-2.202-2.513-2.667s-2.54-.367-3.655.267c-.882.454-1.287.974-1.382.9-.07-.036.193-.707 1.113-1.347 1.225-.86 2.798-1.05 4.192-.507s2.425 1.746 2.746 3.207c.245 1.097-.014 1.77-.092 1.747z"/><path d="M100.726 46.08c-.21-.044-.06-1.347-.437-2.863-.352-1.523-1.078-2.615-.9-2.75.132-.142 1.224.862 1.63 2.577s-.1 3.102-.282 3.036z"/><path d="M100.64 43.103c-.014.22-.83.264-1.612.678-.788.43-1.448.972-1.6.8-.13-.12.264-.908 1.263-1.466 1.06-.532 1.99-.198 1.95-.022z"/></g><path d="M85.443 47.558c3.046 2.56 3.44 7.105.88 10.15s-7.105 3.44-10.15.88-3.44-7.105-.88-10.15a7.2 7.2 0 0 1 10.152-.88z" class="M"/><g class="C"><path d="M85.746 58.354a11.83 11.83 0 0 1-1.463-1.488c-1.11-1.216-2.46-2.19-3.965-2.86-1.51-.62-3.195-.668-4.74-.14-.62.28-1.217.612-1.783 1a3.09 3.09 0 0 1 1.632-1.357 6.6 6.6 0 0 1 5.1-.013 10.61 10.61 0 0 1 4.05 3.114c.492.5.888 1.104 1.17 1.754z"/><path d="M83.3 46.522a11.6 11.6 0 0 0-1.844 3.764c-.188 1.396-.12 2.815.2 4.187-.062.03-.36-.378-.606-1.153-.63-2.074-.164-4.326 1.236-5.98.533-.614.97-.87 1.014-.818z"/><path d="M81.458 49.22c-.05.078-.47-.193-1.215-.3-.96-.173-1.944.094-2.684.73s-1.153 1.568-1.127 2.542c-.01.753.193 1.21.11 1.246-.05.035-.4-.382-.5-1.226-.138-1.127.296-2.248 1.157-2.988s2.036-1 3.13-.692c.815.232 1.173.645 1.13.69z"/><path d="M81.047 51.603c-.1.126-.923-.44-2.073-.73-1.145-.308-2.136-.21-2.166-.372a2.69 2.69 0 0 1 2.307-.171c1.294.33 2.04 1.174 1.932 1.272z"/><path d="M79.026 50.6c.143.088-.12.65-.12 1.32s.134 1.316-.03 1.36c-.127.043-.514-.5-.53-1.37.02-.9.577-1.405.68-1.313z"/></g><path d="M85.75 45.083c-2.546-1.66-4.11-4.617-5.124-7.484-1.013-2.894-1.054-6.04-.117-8.96a11.67 11.67 0 0 1 6.13 6.547c1.06 2.88.436 7.126-.89 9.9" class="D"/><path d="M82.79 33.337a101.76 101.76 0 0 1 2.735 11.321" class="E"/><path d="M85.524 44.658a7.84 7.84 0 0 1-.463-1.649l-.94-4-1-3.993a7.77 7.77 0 0 1-.345-1.676 6.91 6.91 0 0 1 .616 1.6l1.107 3.976.83 4.042c.132.557.195 1.128.186 1.7z" class="C"/><path d="M92.2 58.005c2.975-.626 6.172.358 8.915 1.67a14.08 14.08 0 0 1 6.418 6.252c-2.91 1.098-6.135.99-8.964-.3C95.78 64.34 93.22 60.896 92.2 58" class="D"/><path d="M102.595 64.213a101.8 101.8 0 0 1-9.939-6.071" class="E"/><path d="M92.657 58.147c.526.225 1.026.508 1.5.842l3.5 2.165 3.524 2.123a7.81 7.81 0 0 1 1.429.941 6.87 6.87 0 0 1-1.566-.694l-3.594-2.028-3.445-2.272c-.49-.302-.938-.664-1.338-1.077z" class="C"/><path d="M89.317 59.42c.427 1.804.26 3.697-.47 5.4-.63 1.72-1.804 3.2-3.344 4.183-.824-1.665-.95-3.59-.35-5.35a8.5 8.5 0 0 1 4.163-4.235" class="D"/><path d="M86.233 65.97a60.98 60.98 0 0 1 3.03-6.268" class="E"/><path d="M89.263 59.7a20.39 20.39 0 0 1-1.425 3.177c-.444 1.074-.98 2.108-1.6 3.1a20.4 20.4 0 0 1 3.03-6.268zm282.7-40.184v60.84h-72.52l-2.613-60.413z" class="C"/><path d="M296.83 80.355V19.87h72.52v60.486z" class="E"/><path d="M369.837 80.844h-73.5v-61.46h73.5zm-72.52-.977h71.543v-59.51h-71.54z" class="C"/><path d="M304.683 26.085h56.812v46.308h-56.812z" class="E"/><g class="C"><path d="M361.495 26.086a2.54 2.54 0 0 1-.28.013l-.8.013-3.09.027-11.633.06-41.007.114.227-.227.027 46.3-.255-.255 56.812.042-.213.212.1-33.56.055-9.4q.015-1.61.024-2.484l.024-.867a20.1 20.1 0 0 0 .023.821q.01.86.024 2.444l.055 9.35.1 33.906h-.213l-56.812.042-.254-.255.027-46.528h.227l52.736.174 3.047.027.775.013c.085-.001.17.005.255.017z"/><path d="M296.83 19.73a25.18 25.18 0 0 1 4.089 2.982 25.2 25.2 0 0 1 3.766 3.375 25.51 25.51 0 0 1-4.089-2.982 25.46 25.46 0 0 1-3.766-3.375zm72.518.138c-1.142 1.227-2.404 2.335-3.77 3.308a24.92 24.92 0 0 1-4.085 2.909c1.142-1.227 2.404-2.335 3.77-3.308a24.91 24.91 0 0 1 4.085-2.909z"/></g><path d="M369.35 80.356l-8.143-7.962" class="E"/><path d="M361.206 72.394a32 32 0 0 1 4.249 3.8c1.42 1.27 2.722 2.663 3.894 4.163a32.05 32.05 0 0 1-4.25-3.8c-1.418-1.27-2.72-2.663-3.893-4.163zm-64.376 7.962a28.47 28.47 0 0 1 3.71-3.983 29.3 29.3 0 0 1 4.065-3.62c-1.1 1.44-2.352 2.774-3.7 3.984a29.3 29.3 0 0 1-4.065 3.62z" class="C"/><g class="D"><path d="M322.72 54.8h-5.14a.59.59 0 0 1-.329-.1c-.178-.168-.282-.4-.3-.643v-.008q0-.313 1.42-10.524a1.53 1.53 0 0 1 .031-.226.56.56 0 0 1 .552-.374.6.6 0 0 1 .284.069.57.57 0 0 1 .322.543q-.07.7-.35 2.884-.883 6.74-.92 7.115h4.364a.89.89 0 0 1 .329.061c.244.083.403.317.4.574a.68.68 0 0 1-.03.2.72.72 0 0 1-.633.429zm1.117-4.852a9.24 9.24 0 0 1 .359-2.514 8.09 8.09 0 0 1 1.714-3.252 3.37 3.37 0 0 1 2.517-1.33c.844.016 1.627.442 2.1 1.14.658.942 1.02 2.058 1.04 3.207q.253-.095.743-.33a2.41 2.41 0 0 1 .941-.307c.308.005.556.255.558.563-.014.213-.1.4-.267.555-.576.457-1.27.742-2 .82a9.26 9.26 0 0 1-.29 1.66 7.84 7.84 0 0 1-1.713 3.326c-.622.8-1.558 1.27-2.563 1.316a2.51 2.51 0 0 1-.336-.023 2.75 2.75 0 0 1-1.952-1.4 6.36 6.36 0 0 1-.851-3.431zm1.3-.22a6.72 6.72 0 0 0 .4 2.424q.535 1.385 1.577 1.385c.188-.004.373-.048.543-.13a3.8 3.8 0 0 0 1.568-1.686 8.26 8.26 0 0 0 1.04-3.111 3.75 3.75 0 0 1-2.073-.638c-.855-.6-1.48-1.46-1.768-2.458a7.6 7.6 0 0 0-1.286 4.215zm3.526-5.487a.74.74 0 0 0-.36.087 1.01 1.01 0 0 0-.42.96 1.69 1.69 0 0 0 .023.267 2.08 2.08 0 0 0 1.056 1.423c.4.265.86.42 1.34.448a7.74 7.74 0 0 0-.184-1.249q-.42-1.864-1.453-1.935zm7.797-1.28a.62.62 0 0 1 .608.6q-.308 2.5-.48 3.9-.447 3.547-.448 4.023 0 1.936.995 1.944a4.22 4.22 0 0 0 3.275-1.744 10.31 10.31 0 0 0 1.867-3.764 3.74 3.74 0 0 1-2.235-.734c-.655-.53-1.02-1.34-.98-2.18a2.11 2.11 0 0 1 .763-1.623 2.22 2.22 0 0 1 1.479-.566 2.43 2.43 0 0 1 1.769.693 2.83 2.83 0 0 1 .8 2.109q0 .3-.053.97a2.83 2.83 0 0 0 .337-.1 5.06 5.06 0 0 0 1.025-.523 1.46 1.46 0 0 1 .72-.277c.084.002.165.026.237.07a.53.53 0 0 1 .283.5q-.008.474-.757.917a5.69 5.69 0 0 1-2.124.687 12.43 12.43 0 0 1-2.124 4.49c-1.018 1.512-2.708 2.435-4.53 2.474a1.9 1.9 0 0 1-.673-.115q-1.314-.505-1.314-3.1a24.76 24.76 0 0 1 .344-3.635q.352-2.254.416-3.128-.757.483-1.2.75a3.31 3.31 0 0 1-.886.484.62.62 0 0 1-.335-.1c-.184-.112-.295-.313-.3-.53a.72.72 0 0 1 .367-.583l.06-.038a20.6 20.6 0 0 1 3.086-1.88zm3.84 2.25c-.004.237.055.47.17.677q.474.847 2.1.847c.076-.38.117-.767.122-1.155a2.11 2.11 0 0 0-.1-.654c-.117-.488-.56-.826-1.063-.808a1.35 1.35 0 0 0-.7.184 1 1 0 0 0-.515.909z"/><path d="M346.752 42.94h4.91a.99.99 0 0 1 .283.039c.264.07.44.317.42.59a.51.51 0 0 1-.054.232c-.118.232-.35.384-.61.4h-4.407l-.555 4.17h3.175c.118-.001.235.022.344.068.236.1.388.322.376.574 0 .07-.013.14-.04.206a.73.73 0 0 1-.627.413h-3.377l-.5 3.9h4.353c.112-.001.223.017.33.053a.58.58 0 0 1 .4.581c-.001.065-.01.13-.03.19a.7.7 0 0 1-.627.437h-5.092c-.123.001-.243-.034-.346-.1a.72.72 0 0 1-.3-.64q0-.107 1.362-10.538c.01-.074.03-.147.062-.215.088-.225.31-.37.55-.36z"/></g><g class="J"><path d="M219.444 167.38l-3.79-11.172-12.728-10.454-26.93-10.707-40.757-2.38-18.3 84.478-8.53 48.417c-.1.826 96.45.718 96.45.718l-10.3-24.736 19.62-48.057z"/><path d="M110.32 142.447c-5.6 6.922-44.12 48.407-45.3 50.9s-10.056 18.022-4.51 25.23l6.655 9.426 15.8-21.07c-.205.806 43.976-35.958 43.976-35.958l8.3-38.31s-18.188 1.47-24.92 9.78zm-27.285 64.21z"/></g><path d="M163.178 222.818a1.18 1.18 0 0 1-.2-.236l-.524-.7-.84-1.116-1.16-1.44-1.485-1.675-1.8-1.83a42.56 42.56 0 0 0-9.528-6.845l-2.3-1.125-2.062-.872-1.734-.64a24.18 24.18 0 0 0-1.325-.438l-.842-.27a1.2 1.2 0 0 1-.288-.116 1.13 1.13 0 0 1 .3.052l.86.212 1.347.388s1.12.342 1.76.6l2.1.842c.75.308 1.52.7 2.338 1.106a40.3 40.3 0 0 1 9.6 6.895l1.794 1.863 1.464 1.7s.8 1.038 1.128 1.477a20.04 20.04 0 0 1 .8 1.153l.475.748a1.11 1.11 0 0 1 .142.266zM246.47 97.912c3.384-2.37 4.36-7.274 2.9-11.143s-4.877-6.737-8.648-8.428-7.907-2.356-11.988-3.005c-1-4.874-4.68-8.764-9.487-10.057s-9.932.23-13.252 3.94a8.38 8.38 0 0 0-14.333 3.789l11.93 15.546-2.507 40.773c2.288 7.785 9.997 12.665 18.012 11.4s13.85-8.28 13.63-16.4a13.86 13.86 0 0 0 4.292-1.387 14.15 14.15 0 0 0 10.253-3.755c5.74-5.58 5.336-16.16-.8-21.284z" class="B"/><path d="M195.748 153.223l3.68-9.18s11.447 2.4 19.14-10.755c3.826-6.544 7.933-18.118 10.987-27.7 2.75-8.622 1.2-21.12-7.534-23.5l-28.762-3.584c-2.652-.723-4.378 1.084-5.326 3.664l-.68 1.117-14.433 40.648-6.66 18.03c-2.772 7.71.8 16.264 8.232 19.714h0c3.94 1.828 8.456 1.957 12.493.36s7.24-4.785 8.86-8.814z" class="F"/><path d="M220.288 113.27a1.93 1.93 0 0 1-2.442 1.139c-.477-.143-.875-.473-1.105-.914a1.85 1.85 0 0 1-.117-1.43 1.93 1.93 0 0 1 2.44-1.141 1.85 1.85 0 0 1 1.224 2.346zm4.238-2.345c-.314.147-1.284-1.392-3.222-2.14-1.925-.776-3.734-.334-3.852-.653-.062-.146.33-.48 1.124-.7a5.3 5.3 0 0 1 3.2.233 5.21 5.21 0 0 1 2.45 2c.414.686.45 1.2.3 1.25zm-23.518-4.365a1.93 1.93 0 0 1-2.442 1.139c-.477-.143-.876-.473-1.106-.915s-.272-.957-.116-1.43a1.93 1.93 0 0 1 2.44-1.141 1.85 1.85 0 0 1 1.224 2.347zm4.42-2.346c-.315.147-1.287-1.393-3.223-2.14-1.925-.777-3.734-.334-3.852-.653-.06-.146.328-.48 1.124-.7a5.3 5.3 0 0 1 3.2.232 5.09 5.09 0 0 1 2.451 2c.412.685.45 1.188.3 1.25zm1.586 16.4a13.75 13.75 0 0 1 3.365.658c.514.142 1.02.226 1.235-.08a2.7 2.7 0 0 0 .242-1.594q0-2.066 0-4.334c.058-6.15.306-11.13.553-11.125s.4 4.994.344 11.143q-.04 2.268-.075 4.333a3.07 3.07 0 0 1-.5 2.04 1.33 1.33 0 0 1-1.094.406 3.59 3.59 0 0 1-.885-.211 13.49 13.49 0 0 1-3.185-1.237z" class="B"/><path d="M199.43 144.043c-6.645-2.473-12.472-6.742-16.834-12.33 0 0 .88 11.747 15.43 15.9z" class="H"/><g class="B"><path d="M207.944 98.22c-.416.434-2.2-.65-4.553-1.367-2.334-.765-4.42-.907-4.5-1.5-.034-.28.494-.627 1.443-.806 2.515-.372 5.062.434 6.905 2.186.672.7.905 1.277.716 1.487zm18.192 7.624c-.574.282-1.974-.788-3.863-1.55-1.866-.817-3.618-1.07-3.8-1.674-.075-.287.35-.628 1.214-.77a6.56 6.56 0 0 1 3.433.508 6.46 6.46 0 0 1 2.748 2.089c.496.713.54 1.25.278 1.397zm-22.156-32.04a10.3 10.3 0 0 0 7.6 13.906c2.3.448 5.066.287 6.472 2.154 1.48 1.964.406 4.935 1.547 7.114 1.63 3.113 6.348 2.642 9.12 4.8 2.14 1.668 2.745 4.577 3.6 7.156s2.53 5.376 5.233 5.608a30.53 30.53 0 0 0 1.574-6.84 10.27 10.27 0 0 0-1.605-6.7 38.27 38.27 0 0 1-2.391-3.017c-1.374-2.412-.73-5.42-1.084-8.173a11.29 11.29 0 0 0-5.923-8.451c-2.646-1.363-5.8-1.65-8.233-3.382-1.8-1.28-3.02-3.25-4.883-4.422-3.627-2.282-8.374-.9-12.314.787"/><path d="M214.336 84.304c-1.56-1.192-4.71-3.74-5.054-5.633-.748-4.113-3.47-7.788-7.237-9.033-4.04-1.23-8.408.348-10.73 3.877a13.69 13.69 0 0 0-13.72 2.755 15.87 15.87 0 0 0-4.992 13.9 28.48 28.48 0 0 1 .1 3.949c-1.404.456-2.762 1.045-4.054 1.76-6.4 4.086-.744 10.942-.744 10.942-2.523 3.907 1.077 6.232 3.39 7.724 2.222 1.434-.423 8.465 1.524 9.4l10.56-20.154a2.8 2.8 0 0 0 .741.7c4.29 2.912 8.52-6.04 8.5-9.082 2.346-.755 4.588-1.8 6.673-3.115 2.053-1.412 5.253-6.2 5.9-8.67 1.66.756 9.827 1.205 9.142.68z"/></g><path d="M183.375 105.21a4.39 4.39 0 0 0-4.617-5.824c-1.74.263-3.473 1.487-4.585 4.7-2.963 8.58 6.26 9.784 6.36 9.544.06-.146 1.646-4.86 2.84-8.42z" class="F"/><path d="M179.036 109.478c-.03-.04-.186.053-.48.082a1.58 1.58 0 0 1-1.125-.363c-.79-.646-1.057-2.348-.564-3.91.23-.745.627-1.428 1.157-2 .35-.488.92-.772 1.52-.76.387.03.698.33.74.714.032.28-.082.432-.04.463.016.03.234-.08.287-.46.025-.23-.03-.46-.152-.654-.175-.258-.445-.438-.75-.5a2.22 2.22 0 0 0-2.02.79c-.622.617-1.083 1.376-1.344 2.212-.542 1.748-.216 3.672.9 4.458.42.297.95.387 1.445.245.336-.118.45-.294.426-.32z" class="H"/><path d="M229.642 120.724c-.01-.085 1-.08 2.7-.615a12.94 12.94 0 0 0 6.04-4.224 12.6 12.6 0 0 0 2.361-4.515 10.89 10.89 0 0 0 .038-5.776 12.85 12.85 0 0 0-9.188-8.921c-.418-.115-.85-.15-1.264-.23l-1.234-.075-.62-.04.323-.5a4.44 4.44 0 0 0 .645-3.01 7.08 7.08 0 0 0-1.128-2.892 9.35 9.35 0 0 0-4.68-3.57c-3.63-1.346-7.254-1.65-9.976-3.013a9.67 9.67 0 0 1-4.962-4.876 5.58 5.58 0 0 1-.373-1.877 2.42 2.42 0 0 1 .069-.66 7.9 7.9 0 0 0 .549 2.437 9.63 9.63 0 0 0 4.925 4.538 23.71 23.71 0 0 0 4.57 1.4 41.68 41.68 0 0 1 5.427 1.454 11.85 11.85 0 0 1 2.757 1.431 9.53 9.53 0 0 1 2.267 2.355 7.74 7.74 0 0 1 1.251 3.182 5.15 5.15 0 0 1-.747 3.492l-.3-.55c.426.026.87.036 1.318.08.442.082.9.122 1.346.243 4.683 1.184 8.37 4.8 9.658 9.446.522 2.007.488 4.12-.1 6.108-.514 1.716-1.38 3.307-2.54 4.67a12.8 12.8 0 0 1-6.348 4.17c-.668.195-1.356.313-2.05.35-.242.032-.488.03-.73-.004zM245.04 93.86c-.5-.878-1.1-1.675-1.84-2.364a7.49 7.49 0 0 0-2.985-1.585 6.65 6.65 0 0 0-4.28.216l-.544.22.127-.57a10.29 10.29 0 0 0-3.6-9.747c-2.33-1.934-5.36-2.295-7.982-2.443a35.47 35.47 0 0 1-7.12-.72 10 10 0 0 1-4.338-2.156c-.328-.297-.622-.63-.877-.992-.167-.253-.244-.4-.223-.4.053-.04.4.485 1.28 1.185a10.48 10.48 0 0 0 4.275 1.88 38.51 38.51 0 0 0 7.038.555c1.424.037 2.84.214 4.23.528a10.42 10.42 0 0 1 4.167 2.018 10.78 10.78 0 0 1 3.75 10.43l-.418-.35c1.492-.567 3.132-.613 4.653-.13 1.16.345 2.218.962 3.1 1.8a6.42 6.42 0 0 1 1.348 1.857c.13.24.213.5.25.77z" class="G"/><path d="M203.68 123.755a2.98 2.98 0 0 0-1.631-1.9c-.928-.355-1.963-.3-2.85.15l-.057.024c-.04.02-.087.03-.125.053h.04c-.33.15-.605.405-.78.724-.33.76-.26 1.632.185 2.33.663 1.15 1.977 1.76 3.284 1.524 1.304-.314 2.146-1.58 1.932-2.903z" class="J"/><path d="M199.71 120.1c.115.037.014.526.06 1.283a4.79 4.79 0 0 0 3.243 4.378c.71.264 1.208.3 1.2.43.01.1-.51.26-1.357.112-2.323-.437-3.917-2.6-3.658-4.94.106-.854.413-1.302.503-1.264z" class="B"/><path d="M178.096 113.66c.08 0-.047.787-1.042 1.375-.59.335-1.28.443-1.942.306a2.83 2.83 0 0 1-1.83-3.987c.328-.593.862-1.045 1.5-1.273 1.094-.373 1.772.045 1.722.105-.02.115-.672-.068-1.525.358a2.47 2.47 0 0 0-1.11 1.106 2.28 2.28 0 0 0 1.4 3.053 2.46 2.46 0 0 0 1.562-.12c.878-.366 1.165-.98 1.265-.923z" class="J"/><g class="K"><path d="M166.334 190.386a16.65 16.65 0 0 1-.52-1.713c-.83-2.75-2.163-5.323-3.93-7.588-.392-.45-.76-.923-1.1-1.413a6.94 6.94 0 0 1 1.279 1.267 19.05 19.05 0 0 1 3.975 7.672 6.94 6.94 0 0 1 .297 1.775z"/><path d="M160.4 177.898a7.82 7.82 0 0 1 1.367 2.871 7.8 7.8 0 0 1-1.367-2.871z"/><path d="M159.7 178.556c.072-.057.484.347.99.835s.923.888.868.962-.572-.22-1.095-.727-.833-1.016-.764-1.07z"/><path d="M159.212 179.5c.457.03.9.167 1.294.4.678.3 1.2.612 1.16.7-.457-.03-.9-.167-1.294-.4-.678-.307-1.198-.617-1.16-.7z"/><path d="M159.14 180.65c0-.1.536-.154 1.194-.142s1.2.095 1.187.185-.536.154-1.193.142-1.2-.095-1.188-.185zm1.336 3.745c-.01-.037.288-.152.8-.183a4.44 4.44 0 0 1 3.54 1.537c.326.393.445.7.412.707a5.89 5.89 0 0 0-4.75-2.061z"/><path d="M159.19 183.455c.026-.084.547.01 1.12.307s.953.664.9.735-.5-.163-1.05-.444-1-.51-.97-.598z"/><path d="M158.815 184.376c-.026-.083.47-.3 1.118-.255s1.116.307 1.08.386-.5-.028-1.1-.06-1.075.014-1.1-.072z"/><path d="M159.098 185.63c-.05-.075.277-.39.734-.708s.87-.514.92-.44-.277.39-.734.708-.867.514-.92.44z"/><path d="M160.4 185.88c-.087-.023-.06-.417.06-.88s.3-.82.377-.8.06.416-.06.88-.3.823-.377.8zm5.175-5.104c-.637 1.64-.776 3.434-.4 5.154-.817-1.662-.664-3.638.4-5.154z"/><path d="M164.303 178.905c.078-.04.4.432.667 1.1s.34 1.23.254 1.253-.306-.494-.558-1.133-.445-1.168-.363-1.2zm1.807-.033c.085.035-.046.548-.224 1.168s-.34 1.124-.43 1.1-.068-.56.117-1.2.456-1.112.538-1.077z"/><path d="M167.542 180.245c.02.1-.423.26-.928.526s-.9.53-.96.46.258-.464.8-.75 1.064-.322 1.08-.236zm-.312 1.625c-.053.077-.423-.1-.9-.16s-.882 0-.914-.085.388-.317.958-.24.913.417.856.483zm-9.328-27.166a16.8 16.8 0 0 1-.52-1.714 23.27 23.27 0 0 0-3.93-7.588 16.54 16.54 0 0 1-1.1-1.413 6.96 6.96 0 0 1 1.279 1.267 19.06 19.06 0 0 1 3.975 7.672 6.95 6.95 0 0 1 .297 1.776z"/><path d="M151.978 142.217a7.8 7.8 0 0 1 1.367 2.87 7.83 7.83 0 0 1-1.367-2.87z"/><path d="M151.27 142.874c.072-.057.484.347.99.835s.923.887.867.96-.57-.22-1.095-.727-.832-1.015-.763-1.07z"/><path d="M150.78 143.82a2.9 2.9 0 0 1 1.294.4c.678.3 1.2.612 1.16.694a2.91 2.91 0 0 1-1.294-.4c-.678-.3-1.2-.612-1.16-.694z"/><path d="M150.708 144.97c0-.1.536-.154 1.193-.142s1.2.095 1.187.185-.536.154-1.193.142-1.2-.095-1.187-.185zm1.337 3.748c-.01-.037.288-.15.8-.182 1.353-.055 2.656.5 3.54 1.536.326.393.445.688.412.707a5.89 5.89 0 0 0-4.75-2.062z"/><path d="M150.755 147.774c.026-.084.548.01 1.12.307s.953.664.9.734-.5-.163-1.05-.444-.998-.5-.97-.597z"/><path d="M150.383 148.695c-.026-.082.47-.295 1.118-.255s1.116.307 1.08.386-.51-.028-1.1-.06-1.075.02-1.1-.07z"/><path d="M150.668 149.95c-.05-.074.277-.39.734-.708s.87-.514.92-.44-.277.39-.734.71-.87.513-.92.44z"/><path d="M151.978 150.2c-.087-.023-.06-.417.06-.88s.3-.82.378-.8.06.417-.062.88-.3.82-.377.8zm5.165-5.105c-.637 1.64-.776 3.434-.4 5.154-.817-1.662-.664-3.638.4-5.154z"/><path d="M155.87 143.223c.078-.042.4.432.667 1.1s.34 1.23.254 1.253-.305-.495-.558-1.134-.445-1.162-.363-1.2zm1.8-.023c.085.034-.046.547-.224 1.168s-.34 1.124-.43 1.1-.068-.56.117-1.2.457-1.1.538-1.077z"/><path d="M159.1 144.563c.02.1-.423.26-.928.526s-.9.53-.96.46.258-.464.8-.75 1.063-.323 1.08-.237zm-.303 1.637c-.053.077-.423-.1-.9-.16s-.882 0-.914-.084.388-.318.958-.24.916.418.856.483zm-55.7 33.87c-.204-.56-.378-1.133-.52-1.713a23.23 23.23 0 0 0-3.932-7.588c-.4-.45-.76-.923-1.1-1.413a6.93 6.93 0 0 1 1.279 1.267 19.04 19.04 0 0 1 3.975 7.672 6.94 6.94 0 0 1 .298 1.775z"/><path d="M97.174 167.583c.648.853 1.113 1.83 1.367 2.87-.648-.853-1.113-1.83-1.367-2.87z"/><path d="M96.465 168.24c.072-.057.484.347.99.835s.922.888.867.962-.572-.22-1.094-.727-.833-1.016-.764-1.07z"/><path d="M95.976 169.185a2.9 2.9 0 0 1 1.293.4c.68.3 1.2.612 1.162.695a2.91 2.91 0 0 1-1.294-.4c-.678-.302-1.198-.612-1.16-.695z"/><path d="M95.903 170.335c0-.1.536-.154 1.194-.142s1.2.095 1.187.184-.536.154-1.194.142-1.188-.094-1.187-.184zm1.337 3.745c-.008-.037.3-.152.8-.183a4.44 4.44 0 0 1 3.54 1.537c.326.393.445.7.412.707a5.88 5.88 0 0 0-4.75-2.06z"/><path d="M95.953 173.14c.026-.084.548.01 1.12.307s.953.664.9.734-.5-.163-1.05-.444-1-.5-.97-.597z"/><path d="M95.58 174.06c-.026-.083.47-.3 1.118-.255s1.116.307 1.08.386-.5-.028-1.1-.06-1.075.02-1.1-.07z"/><path d="M95.864 175.315c-.05-.074.277-.39.734-.708s.87-.514.92-.44-.277.39-.734.708-.87.51-.92.44z"/><path d="M97.174 175.565c-.087-.023-.06-.417.06-.88s.3-.82.378-.8.06.416-.06.88-.3.823-.378.8zm5.166-5.105c-.637 1.64-.776 3.434-.4 5.154a5.08 5.08 0 0 1 .4-5.154z"/><path d="M101.067 168.594c.078-.042.4.432.667 1.1s.34 1.23.253 1.253-.3-.494-.557-1.133-.445-1.172-.363-1.2zm1.808-.038c.085.035-.046.548-.224 1.168s-.34 1.124-.43 1.1-.068-.56.117-1.2.456-1.112.538-1.077z"/><path d="M104.306 169.93c.02.1-.423.26-.928.526s-.9.53-.96.46.258-.464.8-.75 1.065-.322 1.08-.236zm-.312 1.626c-.053.077-.423-.1-.9-.16s-.882 0-.914-.084.388-.318.957-.24.914.417.857.483zm-31.24 41.98a16.88 16.88 0 0 1-.519-1.714c-.83-2.75-2.164-5.323-3.932-7.588a16.29 16.29 0 0 1-1.1-1.412 7.59 7.59 0 0 1 1.28 1.266 19.05 19.05 0 0 1 3.976 7.672 6.91 6.91 0 0 1 .296 1.776z"/><path d="M66.83 201.047a7.81 7.81 0 0 1 1.366 2.871c-.647-.853-1.112-1.83-1.366-2.87z"/><path d="M66.122 201.705c.072-.058.484.346 1 .835s.923.888.868.962-.572-.22-1.1-.727-.827-1.016-.758-1.07z"/><path d="M65.633 202.65a2.9 2.9 0 0 1 1.294.4c.678.3 1.2.612 1.162.694-.457-.03-.9-.166-1.294-.4-.678-.3-1.198-.612-1.162-.694z"/><path d="M65.56 203.8c0-.1.536-.153 1.193-.142s1.2.095 1.188.185-.536.154-1.194.142-1.2-.095-1.187-.185zm1.34 3.743c-.008-.037.3-.15.8-.182a4.43 4.43 0 0 1 3.54 1.537c.326.393.445.688.412.707a5.89 5.89 0 0 0-4.75-2.062z"/><path d="M65.6 206.604c.027-.084.548.01 1.12.306s.954.664.9.735-.5-.163-1.05-.444-1-.5-.97-.597z"/><use xlink:href="#B"/><path d="M65.52 208.78c-.05-.074.277-.39.734-.708s.868-.514.92-.44-.277.39-.734.708-.87.514-.92.44z"/><path d="M66.83 209.028c-.087-.023-.06-.416.062-.88s.3-.82.378-.8.06.417-.062.88-.29.824-.378.8z"/><use xlink:href="#C"/><path d="M70.724 202.053c.078-.042.4.432.668 1.1s.34 1.23.253 1.253-.305-.495-.558-1.133-.444-1.167-.363-1.2zm1.808-.03c.085.035-.046.548-.224 1.168s-.34 1.125-.43 1.1-.068-.56.117-1.2.456-1.113.538-1.077z"/><path d="M73.963 203.395c.02.1-.422.26-.928.526s-.9.53-.962.462.26-.464.8-.75 1.064-.323 1.08-.237zm-.313 1.625c-.053.077-.423-.1-.9-.16s-.882 0-.914-.084.388-.318.957-.24.914.42.857.484zm56 46.122a16.58 16.58 0 0 1-.52-1.714 23.26 23.26 0 0 0-3.932-7.588c-.392-.45-.76-.923-1.1-1.413a6.94 6.94 0 0 1 1.279 1.267 19.05 19.05 0 0 1 3.976 7.672 6.98 6.98 0 0 1 .297 1.776z"/><path d="M123.717 238.655a7.83 7.83 0 0 1 1.367 2.87 7.81 7.81 0 0 1-1.367-2.87z"/><path d="M123.008 239.313c.072-.058.484.346 1 .835s.923.888.868.962-.572-.22-1.1-.727-.827-1.016-.758-1.07z"/><path d="M122.52 240.258a2.9 2.9 0 0 1 1.294.4c.678.3 1.2.612 1.162.694-.457-.03-.9-.167-1.294-.4-.68-.3-1.198-.612-1.162-.694z"/><path d="M122.446 241.407c0-.1.536-.154 1.194-.142s1.2.095 1.187.185-.536.154-1.193.142-1.2-.097-1.188-.185zm1.34 3.745c-.008-.037.3-.15.8-.182a4.43 4.43 0 0 1 3.54 1.537c.325.393.445.688.412.707a5.89 5.89 0 0 0-4.75-2.062z"/><path d="M122.495 244.21c.027-.084.548.01 1.12.307s.954.664.9.735-.5-.163-1.05-.444-1-.5-.97-.598z"/><use xlink:href="#B" x="56.886" y="37.608"/><path d="M122.408 246.387c-.05-.074.277-.39.734-.708s.87-.514.92-.44-.277.39-.734.708-.87.514-.92.44z"/><path d="M123.716 246.637c-.087-.023-.06-.417.062-.88s.3-.82.378-.8.06.417-.062.88-.29.822-.378.8z"/><use xlink:href="#C" x="56.886" y="37.611"/><path d="M127.6 239.66c.078-.042.4.432.668 1.1s.34 1.23.253 1.253-.3-.495-.558-1.134-.448-1.166-.363-1.2zm1.818-.032c.085.034-.046.548-.224 1.168s-.34 1.125-.43 1.1-.068-.56.117-1.2.456-1.1.538-1.077z"/><path d="M130.85 241c.02.1-.422.26-.928.526s-.9.53-.962.462.26-.465.8-.75 1.064-.323 1.08-.237zm-.314 1.628c-.054.077-.423-.1-.9-.16s-.882 0-.914-.084.388-.318.957-.24.914.418.857.484zm11.264-57a17.35 17.35 0 0 1-.52-1.714c-.83-2.75-2.164-5.323-3.932-7.588a16.69 16.69 0 0 1-1.1-1.412c.48.365.9.8 1.28 1.266a19.05 19.05 0 0 1 3.976 7.672 6.91 6.91 0 0 1 .296 1.776z"/><path d="M135.875 173.15c.647.853 1.112 1.83 1.366 2.87a7.83 7.83 0 0 1-1.366-2.871z"/><path d="M135.166 173.808c.072-.058.484.346 1 .835s.923.888.868.962-.572-.22-1.1-.728-.827-1.015-.758-1.07z"/><path d="M134.677 174.754a2.9 2.9 0 0 1 1.294.4c.678.3 1.2.612 1.162.694a2.9 2.9 0 0 1-1.294-.4c-.68-.3-1.198-.612-1.162-.694z"/><path d="M134.604 175.903c0-.1.536-.154 1.193-.142s1.2.095 1.188.185-.536.154-1.194.142-1.2-.096-1.187-.185zm1.338 3.743c-.008-.037.288-.15.8-.182a4.43 4.43 0 0 1 3.54 1.537c.325.393.445.688.412.708a5.89 5.89 0 0 0-4.75-2.062z"/><path d="M134.654 178.707c.027-.084.548.01 1.12.307s.954.664.9.735-.5-.164-1.05-.445-.998-.508-.97-.597z"/><use xlink:href="#B" x="69.044" y="-27.897"/><path d="M134.565 180.882c-.05-.074.277-.39.734-.708s.868-.514.92-.44-.277.39-.733.708-.87.514-.92.44z"/><path d="M135.874 181.135c-.087-.023-.06-.417.062-.88s.3-.82.378-.8.06.417-.062.88-.29.82-.378.8z"/><use xlink:href="#C" x="69.044" y="-27.897"/><path d="M139.768 174.156c.078-.042.4.432.668 1.1s.34 1.23.253 1.253-.305-.495-.558-1.134-.444-1.166-.363-1.2zm1.808-.033c.085.035-.046.548-.224 1.17s-.34 1.124-.43 1.108-.068-.56.117-1.2.456-1.1.538-1.077z"/><path d="M143.007 175.498c.02.1-.422.26-.928.526s-.9.53-.962.462.26-.464.8-.75 1.06-.323 1.08-.237zm-.312 1.625c-.053.076-.423-.1-.9-.16s-.882 0-.914-.084.388-.318.957-.24.914.418.857.484zm43.045 1.09c.54-.256 1.092-.484 1.656-.68a23.23 23.23 0 0 0 7.177-4.64 16.64 16.64 0 0 1 1.3-1.23 6.96 6.96 0 0 1-1.138 1.394 19.03 19.03 0 0 1-7.257 4.691 6.95 6.95 0 0 1-1.738.466z"/><path d="M197.603 171.122c.047.077-.526.506-1.28.957a4 4 0 0 1-1.447.677c-.047-.077.526-.506 1.28-.957a4 4 0 0 1 1.447-.677z"/><path d="M196.88 170.474c.064.066-.3.515-.736 1.066s-.8 1-.874.956.164-.6.62-1.16.93-.92.99-.862z"/><path d="M195.892 170.083a2.89 2.89 0 0 1-.27 1.325c-.234.7-.494 1.25-.58 1.223a2.91 2.91 0 0 1 .27-1.325c.236-.7.495-1.252.58-1.223z"/><use xlink:href="#D"/><path d="M191.143 171.812c.036-.012.178.273.258.777a4.44 4.44 0 0 1-1.191 3.671c-.36.36-.643.51-.665.478a5.89 5.89 0 0 0 1.6-4.926z"/><path d="M191.955 170.44c.086.018.042.546-.2 1.145s-.57 1.012-.645.967.115-.515.342-1.088.413-1.045.503-1.024z"/><path d="M191.002 170.155c.08-.034.34.44.36 1.09s-.2 1.14-.28 1.112-.02-.5-.046-1.1-.122-1.07-.034-1.1z"/><path d="M189.78 170.56c.07-.058.416.238.775.662s.595.816.526.874-.416-.24-.775-.663-.595-.815-.526-.873z"/><path d="M189.658 171.886c.015-.1.4-.1.882-.023s.844.2.83.3-.4.1-.882.023-.844-.208-.83-.3zm5.574 4.654a8.97 8.97 0 0 0-5.168.095c1.576-.972 3.557-1.008 5.168-.095z"/><path d="M196.973 175.094c.05.074-.4.45-1.02.77s-1.192.455-1.223.372.463-.35 1.075-.664 1.115-.555 1.17-.477zm.207 1.796c-.026.088-.55.006-1.184-.1s-1.152-.232-1.145-.322.55-.12 1.2 0 1.154.348 1.13.433z"/><path d="M195.948 178.446c-.088.03-.3-.4-.613-.873s-.613-.844-.55-.913.487.213.825.735.424 1.027.34 1.05zm-1.648-.156c-.082-.046.06-.43.072-.915s-.088-.878 0-.918.354.356.33.93-.332.953-.403.903zm-81.974-17.62c.54-.256 1.092-.483 1.656-.68a23.25 23.25 0 0 0 7.177-4.639 16.6 16.6 0 0 1 1.3-1.23 6.93 6.93 0 0 1-1.138 1.394 19.02 19.02 0 0 1-7.257 4.69 6.92 6.92 0 0 1-1.738.465z"/><path d="M124.2 153.578c.046.077-.526.506-1.28.958-.432.32-.925.55-1.448.677-.046-.078.526-.506 1.28-.958a4.01 4.01 0 0 1 1.448-.677z"/><path d="M123.467 152.935c.064.066-.3.515-.736 1.066s-.8 1-.874.956.164-.6.62-1.16.93-.926.99-.862z"/><path d="M122.484 152.54a2.89 2.89 0 0 1-.27 1.326c-.235.7-.494 1.25-.58 1.222a2.91 2.91 0 0 1 .27-1.326c.23-.703.5-1.25.58-1.222zm-1.156.037c.1-.007.2.52.255 1.174s.02 1.193-.07 1.2-.2-.52-.255-1.174-.02-1.192.07-1.2zm-3.598 1.69c.036-.012.18.273.258.777a4.41 4.41 0 0 1-1.2 3.67c-.36.362-.643.5-.665.478a5.89 5.89 0 0 0 1.6-4.926z"/><path d="M118.542 152.895c.086.02.04.546-.2 1.145s-.57 1.012-.645.967.114-.515.342-1.088.412-1.045.503-1.024z"/><path d="M117.6 152.61c.08-.034.34.44.36 1.09s-.2 1.14-.28 1.112-.02-.5-.046-1.1-.123-1.07-.034-1.1z"/><path d="M116.367 153.015c.07-.058.416.238.775.663s.595.815.526.874-.416-.238-.775-.663-.59-.816-.526-.874z"/><path d="M116.245 154.342c.014-.1.4-.1.88-.023s.844.2.83.3-.4.1-.882.023-.844-.2-.83-.3zm5.575 4.653a8.96 8.96 0 0 0-5.168.1c1.575-.973 3.556-1.012 5.168-.1z"/><path d="M123.555 157.55c.05.074-.4.45-1.02.77s-1.192.455-1.223.372.464-.35 1.075-.663 1.124-.556 1.17-.478zm.21 1.797c-.026.088-.55.006-1.184-.112s-1.152-.23-1.145-.322.55-.12 1.2 0 1.154.35 1.13.434z"/><path d="M122.535 160.902c-.088.03-.3-.4-.613-.873s-.613-.844-.55-.913.487.213.825.735.424 1.028.34 1.05zm-1.647-.158c-.082-.046.06-.43.072-.915s-.088-.877 0-.917.354.356.33.93-.33.954-.402.902zm-40.595 30.34a16.6 16.6 0 0 1 1.656-.681 23.27 23.27 0 0 0 7.177-4.64 16.42 16.42 0 0 1 1.3-1.23 6.94 6.94 0 0 1-1.139 1.4 19.03 19.03 0 0 1-7.256 4.691 6.95 6.95 0 0 1-1.738.461z"/><path d="M92.157 184c.046.078-.527.506-1.28.958-.432.32-.924.55-1.447.677-.046-.077.526-.506 1.28-.958.432-.32.924-.55 1.447-.677z"/><path d="M91.435 183.348c.064.067-.3.515-.736 1.066s-.8 1-.875.955.164-.6.62-1.16.93-.926.99-.862z"/><path d="M90.446 182.956a2.91 2.91 0 0 1-.27 1.326c-.235.7-.495 1.25-.58 1.222a2.9 2.9 0 0 1 .27-1.326c.235-.708.494-1.255.58-1.222z"/><use xlink:href="#D" x="-105.445" y="12.87"/><path d="M85.696 184.68c.036-.012.18.273.258.778.184 1.34-.255 2.692-1.19 3.67-.36.362-.642.51-.665.478a5.89 5.89 0 0 0 1.6-4.926z"/><path d="M86.51 183.308c.087.018.042.546-.2 1.145s-.57 1.013-.645.967.115-.515.342-1.088.413-1.045.503-1.024z"/><path d="M85.555 183.023c.08-.034.34.44.36 1.09s-.2 1.14-.28 1.112-.02-.51-.046-1.1-.12-1.07-.034-1.1z"/><path d="M84.334 183.428c.07-.058.416.238.775.662s.595.815.526.874-.416-.238-.775-.662-.594-.816-.526-.874z"/><path d="M84.2 184.755c.014-.1.4-.1.88-.023s.844.2.83.3-.4.1-.88.023-.842-.2-.83-.3zm5.585 4.645a15.45 15.45 0 0 0-2.591-.333 15.63 15.63 0 0 0-2.577.428c1.576-.972 3.557-1.008 5.168-.095z"/><path d="M91.526 187.962c.05.074-.4.45-1.02.77s-1.192.455-1.223.373.463-.35 1.075-.664 1.12-.554 1.17-.478zm.207 1.798c-.026.088-.55.006-1.184-.1s-1.152-.23-1.145-.323.55-.12 1.2 0 1.155.35 1.13.434z"/><path d="M90.502 191.315c-.088.03-.3-.4-.612-.873s-.613-.844-.55-.914.487.213.825.735.422 1.028.338 1.052zm-1.648-.157c-.082-.046.06-.43.073-.914s-.1-.878 0-.918.353.356.33.93-.332.953-.403.902zm73.052 49.777a16.31 16.31 0 0 1 1.656-.68c2.658-1.1 5.092-2.663 7.177-4.64a16.42 16.42 0 0 1 1.3-1.23 6.95 6.95 0 0 1-1.138 1.394 19.03 19.03 0 0 1-7.256 4.691 6.94 6.94 0 0 1-1.74.466z"/><path d="M173.77 233.843c.046.077-.526.506-1.28.957a4 4 0 0 1-1.447.677c-.046-.077.526-.506 1.28-.957.432-.32.924-.55 1.447-.677z"/><path d="M173.047 233.2c.064.066-.3.515-.736 1.066s-.8 1-.874.956.164-.59.62-1.16.93-.926.99-.862z"/><path d="M172.058 232.804c.016.457-.077.91-.27 1.325-.235.7-.495 1.25-.58 1.222a2.89 2.89 0 0 1 .27-1.326c.236-.7.495-1.25.58-1.22z"/><use xlink:href="#D" x="-23.832" y="62.722"/><path d="M167.31 234.533c.036-.012.178.273.258.777a4.44 4.44 0 0 1-1.191 3.671c-.36.36-.643.51-.665.477a5.89 5.89 0 0 0 1.6-4.926z"/><path d="M168.122 233.16c.086.018.042.546-.2 1.145s-.57 1.013-.645.967.115-.515.342-1.088.413-1.045.503-1.024z"/><path d="M167.168 232.876c.08-.034.34.44.36 1.09s-.2 1.14-.28 1.112-.02-.5-.046-1.1-.122-1.07-.034-1.1z"/><path d="M165.947 233.28c.07-.058.416.238.775.662s.595.816.526.874-.416-.238-.775-.662-.595-.816-.526-.874z"/><path d="M165.824 234.607c.014-.1.4-.1.882-.023s.844.2.83.3-.4.1-.882.023-.844-.2-.83-.3zm5.574 4.653a8.97 8.97 0 0 0-5.168.095c1.576-.972 3.557-1 5.168-.095z"/><path d="M173.14 237.815c.05.073-.4.45-1.022.768s-1.192.455-1.223.372.464-.35 1.075-.663 1.116-.555 1.17-.477zm.206 1.797c-.026.087-.55.006-1.184-.112s-1.15-.23-1.145-.323.55-.12 1.2 0 1.154.35 1.13.435z"/><path d="M172.115 241.167c-.088.03-.3-.4-.613-.873s-.613-.844-.55-.914.487.213.825.736.423 1.027.34 1.05zm-1.648-.157c-.082-.046.06-.43.072-.915s-.088-.878 0-.918.353.356.33.93-.33.953-.402.903zm10.303 19.277a16.9 16.9 0 0 1 1.656-.681 23.27 23.27 0 0 0 7.177-4.639 16.42 16.42 0 0 1 1.3-1.23 6.96 6.96 0 0 1-1.138 1.394 19.05 19.05 0 0 1-7.257 4.691 6.92 6.92 0 0 1-1.738.466z"/><path d="M192.634 253.195c.047.077-.526.506-1.28.958-.432.32-.924.55-1.447.677-.046-.077.526-.506 1.28-.958a4.01 4.01 0 0 1 1.446-.677z"/><path d="M191.912 252.552c.064.066-.3.514-.737 1.066s-.8 1-.875.956.164-.6.62-1.16.932-.927.992-.863z"/><path d="M190.923 252.156a2.91 2.91 0 0 1-.27 1.326c-.234.7-.494 1.25-.58 1.223a2.93 2.93 0 0 1 .27-1.326c.234-.704.494-1.25.58-1.223zm-1.15.04c.1-.008.2.52.255 1.174s.02 1.192-.07 1.2-.2-.52-.255-1.174-.02-1.2.07-1.2zm-3.6 1.69c.036-.012.18.273.258.777a4.44 4.44 0 0 1-1.19 3.671c-.36.362-.643.5-.665.478a5.89 5.89 0 0 0 1.6-4.926z"/><path d="M186.985 252.508c.087.02.042.547-.2 1.145s-.57 1.013-.645.967.114-.515.342-1.088.413-1.04.503-1.024z"/><path d="M186.033 252.228c.08-.034.34.44.36 1.09s-.2 1.14-.28 1.112-.02-.5-.046-1.1-.124-1.07-.035-1.1z"/><path d="M184.81 252.633c.068-.06.416.238.775.662s.6.815.526.874-.416-.238-.775-.663-.595-.816-.526-.873z"/><path d="M184.686 253.96c.014-.1.4-.1.88-.023s.844.2.83.3-.4.1-.88.023-.84-.2-.83-.3zm5.576 4.652c-1.695-.475-3.493-.44-5.168.1 1.575-.973 3.556-1.012 5.168-.1z"/><path d="M192.003 257.167c.05.074-.4.45-1.02.77s-1.192.455-1.223.372.463-.35 1.075-.663 1.12-.554 1.17-.478zm.197 1.797c-.026.088-.55.006-1.184-.1s-1.152-.23-1.145-.323.55-.12 1.2 0 1.155.348 1.13.434z"/><path d="M190.98 260.516c-.1.03-.3-.4-.613-.873s-.613-.844-.55-.913.487.213.825.735.423 1.03.34 1.05zm-1.648-.152c-.082-.046.06-.43.072-.915s-.088-.878 0-.918.354.355.33.93-.33.954-.402.903zm-43.426.654a16.64 16.64 0 0 1 1.657-.682 23.46 23.46 0 0 0 7.177-4.64 16.49 16.49 0 0 1 1.3-1.231 6.95 6.95 0 0 1-1.138 1.394 19.02 19.02 0 0 1-7.257 4.69c-.557.23-1.142.387-1.74.467z"/><path d="M157.77 253.925c.046.078-.527.506-1.28.958-.432.32-.924.55-1.447.677-.046-.077.526-.506 1.28-.958a4.02 4.02 0 0 1 1.447-.677z"/><path d="M157.048 253.283c.064.067-.3.514-.736 1.066s-.8 1-.875.956.164-.6.62-1.16.93-.928.99-.863z"/><path d="M156.06 252.887a2.92 2.92 0 0 1-.27 1.326c-.235.7-.495 1.25-.58 1.223a2.9 2.9 0 0 1 .27-1.326c.235-.705.494-1.252.58-1.223zm-1.152.037c.1-.007.2.52.256 1.174s.02 1.192-.07 1.2-.2-.52-.255-1.175-.02-1.192.07-1.2zm-3.598 1.69c.036-.012.18.273.258.778a4.44 4.44 0 0 1-1.191 3.67c-.36.362-.642.5-.665.478 1.266-1.307 1.857-3.125 1.6-4.926z"/><path d="M152.12 253.242c.086.02.042.547-.2 1.145s-.57 1.013-.645.967.114-.516.34-1.088.414-1.044.504-1.024z"/><path d="M151.168 252.958c.08-.034.34.44.36 1.09s-.2 1.14-.28 1.113-.02-.51-.046-1.1-.12-1.07-.034-1.102z"/><path d="M149.944 253.363c.07-.058.416.238.775.662s.6.815.526.874-.416-.238-.775-.662-.59-.816-.526-.874z"/><path d="M149.825 254.7c.014-.088.4-.1.88-.023s.844.2.83.3-.4.1-.88.023-.844-.2-.83-.3zm5.573 4.65a8.97 8.97 0 0 0-5.168.1 5.08 5.08 0 0 1 5.168-.1z"/><path d="M157.14 257.897c.05.074-.4.45-1.02.77s-1.192.455-1.223.372.463-.35 1.075-.664 1.12-.558 1.17-.477zm.206 1.797c-.026.088-.55.006-1.184-.1s-1.152-.23-1.145-.323.55-.12 1.2 0 1.155.35 1.13.434z"/><path d="M156.115 261.25c-.1.03-.3-.4-.613-.874s-.613-.844-.55-.913.487.213.825.735.423 1.028.34 1.052zm-1.65-.15c-.082-.046.06-.43.073-.914s-.088-.878 0-.918.354.355.33.93-.33.948-.403.902zm24.756-49.686a16.85 16.85 0 0 1 1.656-.681 23.25 23.25 0 0 0 7.177-4.639 16.64 16.64 0 0 1 1.3-1.231 6.93 6.93 0 0 1-1.138 1.394 19.04 19.04 0 0 1-7.257 4.691c-.557.23-1.14.387-1.738.466z"/><path d="M191.083 204.322c.046.077-.526.506-1.28.958-.432.32-.924.55-1.447.677-.047-.078.526-.506 1.28-.958a4.01 4.01 0 0 1 1.447-.677z"/><path d="M190.36 203.68c.064.066-.3.515-.736 1.066s-.8 1-.874.956.164-.6.62-1.16.93-.926.99-.862z"/><path d="M189.372 203.283a2.9 2.9 0 0 1-.27 1.326c-.235.7-.495 1.25-.58 1.222a2.9 2.9 0 0 1 .27-1.325c.23-.704.495-1.25.58-1.223zm-1.15.037c.1-.007.2.52.255 1.175s.02 1.192-.07 1.2-.2-.52-.255-1.174-.02-1.193.07-1.2zm-3.6 1.692c.036-.012.178.273.258.777a4.44 4.44 0 0 1-1.191 3.671c-.36.362-.643.5-.665.478 1.265-1.307 1.855-3.125 1.6-4.926z"/><path d="M185.436 203.64c.086.02.042.546-.2 1.145s-.57 1.012-.645.967.115-.515.342-1.088.413-1.045.503-1.024z"/><path d="M184.482 203.355c.08-.034.34.44.36 1.09s-.2 1.14-.28 1.112-.02-.51-.046-1.1-.122-1.07-.034-1.1z"/><path d="M183.26 203.76c.07-.058.416.238.775.663s.595.815.526.874-.416-.238-.775-.663-.595-.816-.526-.874z"/><path d="M183.138 205.086c.014-.1.4-.1.882-.022s.844.2.83.3-.4.1-.882.023-.844-.212-.83-.3zm5.574 4.654a8.96 8.96 0 0 0-5.168.1c1.575-.973 3.556-1.012 5.168-.1z"/><path d="M190.454 208.293c.05.074-.392.45-1.022.77s-1.192.455-1.223.372.464-.35 1.075-.664 1.12-.554 1.17-.477zm.206 1.797c-.026.088-.55.006-1.184-.112s-1.15-.23-1.145-.322.55-.12 1.2 0 1.154.35 1.13.434z"/><path d="M189.43 211.646c-.1.03-.3-.4-.613-.873s-.613-.844-.55-.913.487.213.825.735.423 1.028.34 1.05zm-1.65-.156c-.082-.046.06-.43.072-.914s-.088-.878 0-.918.353.355.33.93-.33.953-.402.902zm-48.542 14.68a16.9 16.9 0 0 1 .506-1.718 23.25 23.25 0 0 0 .877-8.5 16.91 16.91 0 0 1-.145-1.784c.2.568.327 1.16.374 1.76.368 2.897.065 5.84-.886 8.6a6.9 6.9 0 0 1-.726 1.641z"/><path d="M141.138 212.48a7.82 7.82 0 0 1-.433 3.15 7.82 7.82 0 0 1 .433-3.15z"/><path d="M140.184 212.64c.092-.01.215.555.37 1.24.147.4.214.845.2 1.28-.082.032-.358-.5-.516-1.2-.15-.422-.168-.88-.054-1.312zm-.928.523c.076-.05.463.417.864 1.04s.665 1.17.6 1.218-.463-.417-.865-1.04-.665-1.17-.6-1.217z"/><path d="M138.565 214.084c.05-.075.533.166 1.076.536s.942.73.9.806-.533-.166-1.076-.536-.94-.73-.9-.806zm-.937 3.864c.014-.036.325.03.768.285a4.44 4.44 0 0 1 2.116 3.227c.063.27.047.554-.044.817-.227-1.805-1.275-3.403-2.84-4.33z"/><path d="M137.07 216.455c.068-.056.452.3.768.872s.433 1.078.35 1.108-.33-.412-.634-.948-.555-.975-.484-1.032z"/><path d="M136.25 217.022c.023-.084.555.01 1.075.4s.765.87.69.915-.41-.3-.887-.654-.91-.574-.88-.66z"/><path d="M135.8 218.225c0-.1.446-.175 1-.19s1.01.047 1 .137-.446.175-1 .19-1.008-.047-1-.137z"/><path d="M136.757 219.152c-.06-.067.18-.38.534-.7s.693-.526.753-.46-.18.38-.534.7-.692.526-.753.46zm7.12-1.432a8.98 8.98 0 0 0-3.162 4.089 5.08 5.08 0 0 1 3.162-4.089z"/><path d="M143.84 215.458c.1.008.105.586-.04 1.278s-.4 1.215-.475 1.187.016-.58.156-1.254.27-1.22.36-1.2zm1.53.962c.052.076-.34.432-.828.854s-.9.753-.97.7.25-.5.756-.938 1-.68 1.04-.606zm.442 1.934c-.033.087-.5-.015-1.065-.07s-1.042-.05-1.057-.142.47-.247 1.1-.183 1.067.315 1.033.394zm-1.152 1.188c-.087.035-.3-.315-.668-.63s-.74-.48-.718-.572.5-.053.93.325.54.853.455.876z"/></g><path d="M158.946 230.667a18.08 18.08 0 0 0-3.685-5.3q-6.72-7.615-12.758-15.8c-2.217-3.005-4.45-6.324-4.475-10.058-.02-3.25 1.638-6.235 2.668-9.317 2.13-6.37 1.633-13.487 4.407-19.6 1.3-2.87 3.28-5.406 4.432-8.338 2.622-6.663.627-14.15-1.387-21.023l-4.07-9.208c-5.912 6.555-17.21 2.03-17.918 4.513-.654 2.3 3.367 25.954 2.73 28.267-2.48 9.024-4.388 18.126-6.36 25.742-1.308 5.048-2.6 10.487-.753 15.363 1.716 4.533 5.795 7.654 9.483 10.8a105.5 105.5 0 0 1 14.557 15.164c1.55 1.976 3.093 4.064 5.277 5.3s5.23 1.372 6.99-.42c1.517-1.544 1.63-4.06.862-6.085z" opacity=".3"/><path d="M159.408 138.396s-8.48-7.855-9.66-9.73-7.565-6.31-7.565-6.31-5.288-5.638-14.7-4.378-13.682 13.807-13.682 13.807-.85 19.366 1.12 19.52 3.8.535 3.887-.84-.065-6.574-.065-6.574l3.682-4.477s1.9 17.8 4.107 18.1 3.917 1.09 4.072-.88-2.04-16.6-1.79-17.245 4.592 15.864 4.592 15.864 1.436 3.953 3.327 3.737 3.118-1.45 2.6-3.08-2.324-19.842-2.324-19.842l4.4 10.48 2.186 9.215s2.476 1.6 3.372-.535-.285-11.176-.285-11.176l-2.6-12.032 3.192 2.216s4.06 4.488 6.178 5.4c2.407 1.033 5.957-1.24 5.957-1.24z" class="L"/><path d="M369.4 170.972c-1.4-4.277-37.428-45.97-46.3-59.76-6.078-9.458-14.384-9.072-15.78-8.933l-31.84-.2-24.383 6.092a14.3 14.3 0 0 1-4.048 10.864 14.15 14.15 0 0 1-10.253 3.755 13.88 13.88 0 0 1-4.292 1.387 16.71 16.71 0 0 1-13.63 16.383 15.24 15.24 0 0 1-6.338-.375l.038.155a17.59 17.59 0 0 1-4.976 2.784c-2.624.898-5.412 1.212-8.17.92l-.14.23 3.64 1.48 12.728 10.454 3.044 8.92.516 2.1-20 99.42h105.44l8.4-102.848-1.1-14.962 40.525 45.566z" class="G"/><path d="M325.205 115.256s-.116 0-.34-.03l-.992-.123a33.63 33.63 0 0 0-17.508 2.768 32.88 32.88 0 0 0-8.141 5.261 71.92 71.92 0 0 0-7.736 8.063c-2.56 3-5.16 6.237-8.2 9.294-3.113 3.198-6.772 5.814-10.805 7.724a22.59 22.59 0 0 1-6.5 1.876c-2.193.274-4.418.135-6.56-.4a25.46 25.46 0 0 1-5.842-2.479c-1.813-1.005-3.53-2.078-5.25-3.035-3.222-1.88-6.814-3.04-10.527-3.4a28.07 28.07 0 0 0-9.641.743 29.57 29.57 0 0 0-7.411 3.01l-1.453.9c-.463.3-.87.635-1.28.93-.742.55-1.45 1.144-2.12 1.78a8.32 8.32 0 0 0-.838.827l-.708.756a12.59 12.59 0 0 0-1.04 1.244l-.617.785c-.14.176-.22.26-.22.26s.06-.1.192-.28l.593-.807a11.79 11.79 0 0 1 1.019-1.268l.7-.77a8.68 8.68 0 0 1 .83-.842c.668-.645 1.374-1.25 2.114-1.8.4-.3.817-.646 1.28-.947l1.456-.92a29.5 29.5 0 0 1 7.446-3.077 28.2 28.2 0 0 1 9.724-.789 26.04 26.04 0 0 1 10.646 3.405c1.732.958 3.45 2.028 5.254 3.024a25.21 25.21 0 0 0 5.772 2.443 17.4 17.4 0 0 0 6.439.4 22.3 22.3 0 0 0 6.409-1.851 37.2 37.2 0 0 0 10.712-7.65c3.024-3.036 5.625-6.267 8.2-9.264a71.58 71.58 0 0 1 7.789-8.073 33.03 33.03 0 0 1 21.994-8.153 30.7 30.7 0 0 1 3.839.265l.988.155c.22.037.332.063.332.063zm-35.75-13.554a.65.65 0 0 1-.058.157l-.2.448-.818 1.7a40.26 40.26 0 0 1-3.706 5.861 44.41 44.41 0 0 1-3.1 3.662 45.13 45.13 0 0 1-4.04 3.741 41.59 41.59 0 0 1-23.056 9.344 45.25 45.25 0 0 1-5.5.128c-1.598-.072-3.2-.23-4.772-.473a40.28 40.28 0 0 1-6.74-1.627c-.782-.24-1.365-.5-1.77-.65l-.455-.183a.67.67 0 0 1-.15-.072.62.62 0 0 1 .163.041l.466.152 1.786.6a43.25 43.25 0 0 0 6.735 1.52 42.99 42.99 0 0 0 10.216.274 41.84 41.84 0 0 0 22.893-9.278 43 43 0 0 0 7.142-7.309 43.29 43.29 0 0 0 3.777-5.78c.4-.707.664-1.3.872-1.668l.228-.433c.023-.052.052-.1.088-.146zm23.105 66.946c-.056.064-.118.124-.184.177l-.56.5-.93.787-1.346.978a29.17 29.17 0 0 1-9.716 4.126 45.15 45.15 0 0 1-15.648.623c-5.9-.715-12.17-2.53-18.673-4.55s-12.718-3.975-18.54-4.94a49.75 49.75 0 0 0-15.584-.335 31.64 31.64 0 0 0-10 3.2l-1.443.815c-.413.244-.74.486-1.017.662l-.626.4a1.43 1.43 0 0 1-.22.13 1.5 1.5 0 0 1 .2-.157l.608-.437c.27-.186.595-.437 1-.7l1.434-.845c3.13-1.67 6.52-2.8 10.027-3.315a49.45 49.45 0 0 1 15.67.266c5.854.955 12.082 2.9 18.586 4.926s12.758 3.838 18.614 4.565a45.37 45.37 0 0 0 15.559-.549 29.67 29.67 0 0 0 9.7-4.007l1.358-.95c.387-.283.688-.558.946-.76l.58-.47c.064-.058.132-.1.205-.157zm-100.556 37a1.71 1.71 0 0 1 .215.159l.607.5 1 .8 1.424.98a28.47 28.47 0 0 0 10.215 3.892c5.38.897 10.88.783 16.218-.336 6.04-1.182 12.388-3.62 18.96-6.307s12.87-5.287 18.88-6.753a48.27 48.27 0 0 1 16.277-1.367 30.08 30.08 0 0 1 10.59 3l1.518.84c.434.254.775.5 1.062.7l.644.442a1.65 1.65 0 0 1 .212.159 1.4 1.4 0 0 1-.232-.132l-.66-.415c-.293-.178-.64-.424-1.075-.67l-1.526-.8a30.58 30.58 0 0 0-10.555-2.884 48.46 48.46 0 0 0-16.182 1.43c-5.977 1.473-12.252 4.07-18.83 6.763s-12.945 5.127-19.024 6.3a43.71 43.71 0 0 1-16.319.267 28.07 28.07 0 0 1-10.241-4.013l-1.413-1.008c-.4-.3-.7-.6-.973-.818l-.587-.516c-.07-.056-.134-.117-.193-.183zm93.116 42.992a1.65 1.65 0 0 1-.239-.113l-.685-.36-1.12-.57-1.557-.717a44.74 44.74 0 0 0-10.465-3.038 78.21 78.21 0 0 0-16.155-.848c-6.1.2-12.8.894-19.846 1.133a100.65 100.65 0 0 1-35.6-5.177 93.15 93.15 0 0 1-10.16-4.08c-1.18-.53-2.063-1-2.672-1.312l-.687-.356a1.55 1.55 0 0 1-.229-.131 1.6 1.6 0 0 1 .244.1l.7.327c.618.283 1.5.743 2.7 1.256a102.61 102.61 0 0 0 10.18 3.976 102.74 102.74 0 0 0 15.736 3.835 101.5 101.5 0 0 0 19.782 1.234c7.04-.237 13.73-.92 19.846-1.107a77.14 77.14 0 0 1 16.205.922c3.6.604 7.13 1.662 10.476 3.148a28.23 28.23 0 0 1 3.547 1.877zm38.4-110.276a1.14 1.14 0 0 1-.29.124l-.848.292-1.333.48-1.735.7-2.048.982c-.735.357-1.48.813-2.27 1.276a35.79 35.79 0 0 0-8.961 7.8l-1.576 2.075c-.485.657-.888 1.3-1.254 1.893-.384.58-.668 1.14-.942 1.62s-.5.9-.658 1.254l-.406.8c-.042.097-.096.188-.162.27.02-.104.053-.205.1-.3l.35-.828a14.18 14.18 0 0 1 .612-1.285l.906-1.655 1.23-1.93c.448-.692 1-1.377 1.565-2.1a34.32 34.32 0 0 1 9.039-7.872l2.3-1.26a25.36 25.36 0 0 1 2.08-.952c.637-.3 1.242-.48 1.764-.67a13.97 13.97 0 0 1 1.357-.43l.87-.234a1.15 1.15 0 0 1 .312-.053zm16.673 20.25c-.02.098-.053.193-.1.282l-.345.784-.6 1.217-.872 1.57-1.17 1.836c-.427.658-.945 1.317-1.477 2.02a35.98 35.98 0 0 1-8.418 7.723l-2.138 1.3c-.676.4-1.33.72-1.93 1-.6.307-1.155.525-1.64.735a16.38 16.38 0 0 1-1.264.49l-.8.277a1.09 1.09 0 0 1-.29.075 1.07 1.07 0 0 1 .267-.137l.786-.333 1.237-.54s1.03-.456 1.6-.774l1.9-1.037c.682-.376 1.372-.84 2.106-1.314a37.78 37.78 0 0 0 8.35-7.661l1.5-1.985 1.2-1.8c.367-.552.645-1.082.9-1.537a21.96 21.96 0 0 0 .644-1.187l.4-.755a1.01 1.01 0 0 1 .157-.258z" class="K"/><path d="M211.097 67.455a26.15 26.15 0 0 1 13.331-32.862l1.225-.577c13.57-5.452 25.783 3.03 30.857 16.746l22.512 53.974c.378.905.22 1.946-.406 2.7l-23.148 27.832-12.1-28.195s-13.628 4.008-19.765-8.613c-2.96-6.093-8.042-19.142-12.506-31.005z" class="L"/><path d="M243.26 107.106a34.04 34.04 0 0 0 14.341-12.705c0 0 .392 10.98-12.814 15.8z" class="I"/><path d="M218.524 76.132c.336.13 1.23-1.534 3.184-2.447 1.938-.94 3.843-.612 3.94-.95.055-.155-.376-.474-1.213-.634a5.5 5.5 0 0 0-3.293.469c-1.018.474-1.86 1.26-2.4 2.243-.378.742-.38 1.265-.22 1.32zm19.836-8.146c.336.13 1.233-1.533 3.185-2.447 1.938-.94 3.842-.612 3.94-.95.054-.155-.374-.474-1.213-.633a5.5 5.5 0 0 0-3.293.468 5.29 5.29 0 0 0-2.4 2.243c-.377.743-.38 1.27-.22 1.32zm-2.522 13.527a14.31 14.31 0 0 0-3.438.92c-.523.183-1.04.307-1.285.006a2.8 2.8 0 0 1-.363-1.634q-.15-2.138-.314-4.487c-.5-6.365-1.1-11.5-1.366-11.48s-.06 5.2.44 11.564q.2 2.345.386 4.48c-.03.75.205 1.484.663 2.077a1.38 1.38 0 0 0 1.162.342 3.74 3.74 0 0 0 .9-.281c1.132-.364 2.212-.87 3.216-1.508zm6.376-1.356c-.326.13.668 2.25-.437 4.607s-3.468 3.186-3.345 3.5c.033.146.7.174 1.662-.25 1.25-.567 2.257-1.557 2.85-2.794a5.08 5.08 0 0 0 .23-3.8c-.33-.92-.82-1.335-.96-1.254zm-10.22-23.855c.443.44 2.272-.73 4.7-1.532 2.4-.85 4.565-1.05 4.644-1.67.028-.292-.53-.64-1.517-.8a8.58 8.58 0 0 0-7.111 2.439c-.68.732-.907 1.348-.706 1.562zM214.8 66.397c.552.282 1.68-.812 3.284-1.595 1.58-.84 3.125-1.108 3.22-1.72.032-.3-.392-.633-1.188-.77a5.29 5.29 0 0 0-5.243 2.671c-.355.724-.327 1.268-.074 1.414z" class="B"/><path d="M259.02 61.065c.172-.2 7.507-6.7 11.32 2.12s-5.82 10.82-5.944 10.574-5.375-12.694-5.375-12.694z" class="L"/><path d="M264.878 69.614c.026-.045.2.04.51.048.432-.002.847-.172 1.157-.473.783-.744.927-2.56.283-4.168a5.52 5.52 0 0 0-1.381-2.011 1.93 1.93 0 0 0-1.664-.679.85.85 0 0 0-.724.813c-.01.3.12.448.08.484-.015.033-.253-.066-.34-.46a1.07 1.07 0 0 1 .108-.7 1.26 1.26 0 0 1 .751-.591 2.35 2.35 0 0 1 2.194.672c.705.6 1.253 1.364 1.595 2.225.712 1.8.522 3.854-.593 4.773a1.79 1.79 0 0 1-1.5.374c-.37-.102-.5-.278-.478-.307z" class="I"/><path d="M261.036 53.7c-1.116-5.1-2.044-10.43-4.79-14.87 0 0-3.658-4.828-8.61-6.484-6.2-2.068-16.207-3.68-26.128 1.3-12.862 6.46-14.756 16.5-12.308 22.648 1.12 2.812.218-13.826 13.674-7.16 2.476-7.514 5.92-9.952 13.194-11.105a9.3 9.3 0 0 1 4.208.258c3.547 1.1 3.76 3.413 4.177 4.5 2.947 10.385 11.05 12.126 11.05 12.126l2.882 6.88c.622 2.115 2.44 3.542 3.4 3.32l.53-6.06s-.703-2.723-1.28-5.354z" class="B"/><path d="M246.5 68.95a.26.26 0 1 0-.293-.2.25.25 0 0 0 .293.2zm-4.125.9c.13-.001.245-.085.287-.2s0-.26-.103-.34-.245-.085-.354-.014-.16.204-.13.33c.02.146.154.248.3.232zm-2.54 1.12c.125-.04.172-.24.105-.443s-.222-.337-.346-.3-.172.24-.105.443.22.34.346.3zm5.93 1.172c.12-.056.186-.162.15-.24s-.16-.092-.28-.036-.186.163-.15.24.166.092.28.036zm-3.785.818c.1-.026.193-.117.208-.23a.27.27 0 0 0-.14-.275c-.1-.053-.222-.04-.307.034s-.116.193-.077.3c.04.135.182.2.317.17zm-18.792 6.253a.27.27 0 1 0-.3-.2c.028.138.162.228.3.2zm-2.648.97c.13-.015.237-.1.265-.24a.31.31 0 0 0-.14-.33c-.112-.07-.255-.06-.356.024s-.14.22-.094.344c.036.144.18.232.325.2zm4.92-1.958a.21.21 0 0 0-.137-.397.21.21 0 0 0-.144.252c.038.117.163.182.28.145zm-.686 3.426c.115.014.227-.046.28-.15s.037-.23-.042-.314a.28.28 0 0 0-.31-.07c-.1.044-.177.15-.174.265a.26.26 0 0 0 .245.269zm-2.374.6a.2.2 0 1 0-.311 0 .22.22 0 0 0 .311 0z" class="I"/><path d="M128.526 130.388c-6.313-2.7-13.057-5.4-19.8-5.082.042-.03.086-.054.127-.083 1.326-.818 2.463-1.908 3.335-3.2a4.5 4.5 0 0 0 .295-4.431 2.88 2.88 0 0 0-3.975-1.094 5.14 5.14 0 0 0 1.99-3.337 3.8 3.8 0 0 0-1.446-3.514c-1.115-.797-2.627-.746-3.685.126 1.08-2.21-.028-5.047-2.036-6.468a9.67 9.67 0 0 0-7.084-1.256c-1.117.112-2.18.536-3.07 1.223a2.7 2.7 0 0 0-.837 3.011 7.62 7.62 0 0 0-14.02 5.194c-1.194-.394-2.452.455-3.227 1.446-1.432 1.832-1.977 4.206-1.486 6.48s1.966 4.21 4.026 5.29c-1.83 1.4-1.85 4.427-.33 6.162 1.653 1.68 4.103 2.304 6.358 1.62a3.78 3.78 0 0 0 5.468 4.583l.176-.113a28.95 28.95 0 0 0-3.223 8.443c-.83 4.282-.386 8.7.06 13.036a19.21 19.21 0 0 0 .935 4.88c.945 2.494 4.076 8.357 5.95 10.255l43.5-32.194c.088-3.693-5.636-9.962-8-10.974z" class="B"/><path d="M151.306 235.77l-6.1-8.045-18.066 10.393c.54.644 14.243 20.886 19.262 20.56s44.747-25.485 44.747-25.485l1.58-15.958zm-13.256-81.543c.992-7.743-5.78-16.97-13.56-17.633l-25.632-.058-.7 4.132-8.3 51.262s-.9 12.866 13.155 14.6c12.625 1.557 14.33-7.757 14.33-7.762l1.728-10.367s10.9.125 14.6-10.914c2.087-6.2 3.277-14.657 4.378-23.26z" fill="#bc857a"/><path d="M133.536 161.7a1.66 1.66 0 0 1-1.9 1.346c-.427-.048-.816-.266-1.08-.605s-.38-.77-.32-1.195c.162-.888 1.002-1.486 1.894-1.348a1.6 1.6 0 0 1 1.406 1.802zm1.217-2.497c-.244.174-1.306-.98-3.068-1.316-1.754-.36-3.22.3-3.37.045-.075-.113.205-.458.847-.76a4.57 4.57 0 0 1 2.748-.3c.916.173 1.753.633 2.4 1.313.46.52.57.94.452 1.017zm-17.925-.403c-.162.888-1.003 1.485-1.895 1.346a1.59 1.59 0 0 1-1.4-1.8c.16-.888 1-1.486 1.893-1.348a1.6 1.6 0 0 1 1.402 1.802zm.572-2.604c-.245.174-1.308-.982-3.068-1.316-1.754-.36-3.22.3-3.37.045-.075-.113.2-.46.847-.76.863-.382 1.823-.486 2.748-.3a4.4 4.4 0 0 1 2.39 1.313c.46.523.57.944.453 1.017z" class="B"/><path d="M119.006 188.457a33.04 33.04 0 0 1-16.2-7.846c0 0 2.727 9.682 15.72 10.946z" class="I"/><path d="M115.698 169.047c.3.038-.075 1.95 1.3 3.62s3.448 1.852 3.4 2.122c0 .125-.525.284-1.4.14a4.84 4.84 0 0 1-2.869-1.663c-.7-.84-1.047-1.92-.967-3.012.08-.813.385-1.245.514-1.208zm4.062-17.755c-.38.775-2.567-.048-5.306-.134-2.73-.157-5.073.463-5.284-.34-.1-.38.432-1.08 1.45-1.705a7.53 7.53 0 0 1 4.166-1.043 6.78 6.78 0 0 1 3.9 1.4c.877.72 1.244 1.454 1.073 1.82zm15.967 3.914c-.5.62-1.783-.37-3.5-.734-1.688-.452-3.253-.146-3.448-.932-.078-.38.283-1.026 1.043-1.557a3.86 3.86 0 0 1 3.064-.583c1.068.273 1.98.968 2.525 1.925.4.536.525 1.242.306 1.88zm1.515-7.48s-2-6.5-5.28-5.044-6.7 2.18-8.665.76c-3.092-2.535-7.1-3.7-11.056-3.2-5.383.782-8.012 5.293-9.118 12.538-1.62 10.6-10.4 21.608-10.4 21.608s-5.116-4.362-3.977-10.9l.375-14.06s4.9-15.54 5.912-17.186 13-4.017 13-4.017 16.638-.854 21.854 2.72c8.36 5.733 7.344 16.77 7.344 16.77z" class="B"/><path d="M102.404 156.9c-.157-.145-6.687-4.816-9.047 2.7s5.662 8.325 5.743 8.115 3.304-10.805 3.304-10.805z" fill="#bc857a"/><path d="M97.702 164.15c-.025-.035-.16.05-.413.083-.352.034-.704-.07-.983-.287-.7-.54-.973-2.01-.584-3.373.183-.65.5-1.25.955-1.757a1.58 1.58 0 0 1 1.3-.695.7.7 0 0 1 .659.6c.034.24-.06.376-.024.4.015.025.2-.075.238-.4.017-.2-.035-.398-.147-.563-.158-.22-.396-.37-.663-.418-.666-.073-1.32.205-1.732.734a4.66 4.66 0 0 0-1.111 1.949c-.427 1.527-.1 3.186.888 3.84a1.47 1.47 0 0 0 1.258.178c.288-.115.38-.27.36-.292z" class="I"/><path d="M121.366 169.77a9.05 9.05 0 0 1 1.726.131l.852.1c.462.006.852-.34.9-.8.005-.174-.015-.348-.058-.516l-.206-1.17-.665-4.116a9.11 9.11 0 0 1-.181-1.722 9.2 9.2 0 0 1 .409 1.682l.76 4.1q.1.6.2 1.17l.046.283a1.22 1.22 0 0 1 .007.32c-.024.207-.103.404-.227.57a1.17 1.17 0 0 1-.99.471l-.876-.138c-.576-.068-1.144-.19-1.696-.367z" class="B"/><g class="I"><path d="M109.772 163.43c-.063.044-.166 0-.23-.088s-.065-.2 0-.246.166 0 .23.088.063.202-.001.246zm2.786.666c-.075-.02-.094-.2-.043-.4s.153-.348.227-.33.093.2.043.4-.153.35-.227.33zm2.757-.106c-.073-.022-.1-.14-.065-.262s.127-.2.2-.18.1.14.065.262-.127.2-.2.18zm-4.31 2.583c-.07.03-.183-.072-.25-.23s-.067-.3 0-.34.183.072.252.23.07.3-.001.34zm2.45-.28c-.07-.03-.084-.153-.03-.273s.152-.2.223-.16.084.153.03.273-.152.2-.223.16zm16.003.806c-.078 0-.15-.13-.222-.283s-.128-.295-.075-.352.23.027.327.234.045.398-.03.4zm1.864.325c-.065-.04-.028-.215.083-.4s.253-.282.318-.24.027.215-.083.4-.25.278-.318.24zm1.8.675c-.065-.04-.046-.2.044-.336s.216-.23.28-.2.045.2-.045.336-.215.23-.28.2z"/><path d="M129.455 170.182c-.07.033-.173-.04-.232-.163s-.05-.25.02-.283.173.04.232.163.05.25-.02.283zm1.947-.18c-.073-.024-.1-.13-.07-.236s.122-.174.2-.15.1.13.07.236-.126.174-.2.15zm-9.776-3.333c-.074-.02-.1-.184-.05-.37s.144-.32.22-.3.1.184.05.37-.145.32-.22.3zm4.757-.337a.12.12 0 0 1 .008-.24.12.12 0 0 1 .122.111.13.13 0 0 1-.13.129zm-5.24-2.608c-.077 0-.146-.1-.154-.227s.046-.24.123-.245.146.1.154.226-.047.24-.123.246zm-3.638 1.758c-.074-.02-.1-.15-.06-.3s.132-.232.206-.2.1.15.06.3-.133.233-.206.2zm4.16-6.153c-.074-.02-.1-.15-.06-.288s.132-.232.206-.2.1.15.06.288-.133.233-.206.2z"/></g><path d="M78.957 198.833l-31.25 67.444h60.562l6.9-35.234 6.42 10.31 25.582-14.9s-21.316-34.26-25.04-36.92c-2.38-1.7-11.214-5.694-21.41-5.375-9.442.394-17.857 6.07-21.762 14.675z" class="G"/><path d="M110.28 256c0 .1-12.8.164-28.587.164s-28.6-.073-28.6-.164 12.8-.163 28.6-.163l28.587.163zm3.637-17.47a3.27 3.27 0 0 1-.533-.006l-1.525-.08-5.6-.323-18.5-.832-18.514-.372-5.612-.042-1.526-.02a3.32 3.32 0 0 1-.533-.029 3.16 3.16 0 0 1 .532-.037l1.526-.04 5.613-.062a524.99 524.99 0 0 1 18.524.277 518.97 518.97 0 0 1 18.5.927l5.6.427 1.52.14a3.19 3.19 0 0 1 .528.071zm-4.004-17.732c0 .1-8.97-.235-20.027-.724l-20.014-1.05c.004-.1 8.97.234 20.03.724l20.012 1.05zm33.387-2.116c.053.073-5.413 4.055-12.207 8.892l-12.4 8.626c-.055-.074 5.412-4.054 12.208-8.893l12.4-8.625zm-11.745-16.152c.043.08-5.248 3.045-11.817 6.623l-11.974 6.337c-.043-.08 5.246-3.044 11.818-6.624l11.973-6.336zm-7.885-11.4c-.006.074-1.348-.127-3.5.018l-.847.067-.9.13c-.632.072-1.292.24-1.993.38-1.504.38-2.976.878-4.4 1.492a32.24 32.24 0 0 0-4.1 2.2 32.94 32.94 0 0 0-3.081 2.23l-1.116.947-.82.742a5.24 5.24 0 0 1-.711.624 5.28 5.28 0 0 1 .622-.714l.785-.787 1.1-1a29.27 29.27 0 0 1 3.066-2.306 30.16 30.16 0 0 1 4.132-2.242 27.41 27.41 0 0 1 4.461-1.486l2.023-.356.925-.113.858-.046a13.4 13.4 0 0 1 1.475-.007c.37 0 .742.026 1.1.077.317.017.63.063.94.138zm-20.607 12.992c0 .1-5.936-.094-13.25-.4l-13.236-.737c.003-.1 5.935.093 13.25.4l13.235.737zm.337-14.732c0 .1-3.828.2-8.55.22s-8.552-.016-8.552-.106 3.827-.2 8.55-.22l8.55.106z" class="K"/><path d="M110.064 186.36c-.662.148-1.312.35-1.942.6-1.687.774-3.106 2.03-4.08 3.61a12.69 12.69 0 0 0-1.918 7.82 30.73 30.73 0 0 0 2.615 9.691c2.747 6.643 5.515 12.54 7.59 16.768l3.182 6.347a3.19 3.19 0 0 1 .219.483 3.2 3.2 0 0 1-.277-.452l-.736-1.328c-.632-1.157-1.523-2.844-2.6-4.947a245.11 245.11 0 0 1-7.686-16.747 30.54 30.54 0 0 1-2.613-9.8 12.83 12.83 0 0 1 2.025-7.963c1.01-1.6 2.485-2.856 4.225-3.6a5.3 5.3 0 0 1 .835-.281 3.43 3.43 0 0 1 .63-.138 3.33 3.33 0 0 1 .521-.062z" class="B"/><path d="M128.976 239.252l51.905-12 34.772-71.047s16.53 9.56 14.53 24.447c-1.05 7.81-8.676 31.885-15.492 52.122a40.79 40.79 0 0 1-36.817 27.728l-56.91.184z" class="J"/><g class="B"><path d="M202.484 250.808s-.366.454-1.145 1.25c-1.18 1.118-2.477 2.105-3.87 2.942a37.2 37.2 0 0 1-6.983 3.261 40.41 40.41 0 0 1-10.008 2.057c-7.56.687-16.608.928-26.676.98s-21.163-.1-32.845-.445l-.227-.007.08-.213 8.047-21.515.082-.02 37.485-8.894 9.686-2.243a45.09 45.09 0 0 1 8.058-1.025c2.033-.064 4.065.165 6.033.68.4.125.78.213 1.124.35l.96.377a25.11 25.11 0 0 1 1.438.724l.828.536c.185.122.275.19.275.19s-.1-.052-.29-.166l-.84-.5c-.385-.2-.864-.44-1.442-.7l-.96-.363c-.34-.13-.725-.215-1.12-.334a21.42 21.42 0 0 0-6-.626 45.39 45.39 0 0 0-8.021 1.066c-2.95.63-6.176 1.455-9.67 2.28l-11.22 2.69-26.248 6.28.112-.1-8.01 21.44-.148-.22c11.675.35 22.768.494 32.833.474s19.11-.252 26.656-.907a40.5 40.5 0 0 0 9.97-2 37.71 37.71 0 0 0 6.978-3.2c1.393-.82 2.697-1.786 3.89-2.877.408-.375.68-.7.884-.9s.304-.308.304-.308z"/><path d="M200.732 181.27a2.98 2.98 0 0 1-.2.476l-.62 1.338-2.267 4.925c-1.892 4.168-4.366 9.988-7.026 16.448l-6.9 16.514-2.195 4.96-.62 1.338a3 3 0 0 1-.237.457 3.05 3.05 0 0 1 .177-.484l.565-1.362 2.1-5 6.808-16.55c2.66-6.46 5.17-12.272 7.118-16.42l2.363-4.884.676-1.31a3.1 3.1 0 0 1 .259-.447z"/></g><g class="K"><path d="M210.588 181.32a16.57 16.57 0 0 1 1.656-.682c2.66-1.1 5.092-2.663 7.177-4.64.41-.433.845-.843 1.3-1.23-.317.513-.7.982-1.138 1.395-2.028 2.1-4.5 3.704-7.257 4.69-.557.23-1.14.387-1.738.466z"/><path d="M222.46 174.232c.046.078-.526.506-1.28.958-.432.32-.925.55-1.448.677-.046-.077.526-.506 1.28-.958.432-.32.924-.55 1.447-.677z"/><path d="M221.73 173.6c.064.067-.3.515-.736 1.066s-.8 1-.874.956.164-.6.62-1.16.933-.927.99-.863z"/><path d="M220.745 173.193a2.89 2.89 0 0 1-.27 1.326c-.235.7-.494 1.25-.58 1.222a2.91 2.91 0 0 1 .27-1.326c.235-.702.495-1.25.58-1.222zm-1.152.04c.1-.007.2.52.255 1.174s.02 1.193-.07 1.2-.2-.52-.255-1.174-.02-1.2.07-1.2zm-3.598 1.688c.036-.012.18.273.258.778a4.41 4.41 0 0 1-1.2 3.67c-.36.362-.643.5-.665.478a5.89 5.89 0 0 0 1.6-4.926z"/><path d="M216.806 173.546c.086.018.042.546-.2 1.145s-.57 1.013-.645.967.114-.515.342-1.088.414-1.04.503-1.024z"/><path d="M215.854 173.265c.08-.034.34.44.36 1.09s-.2 1.14-.28 1.112-.02-.51-.046-1.1-.122-1.07-.034-1.1z"/><path d="M214.633 173.67c.07-.058.416.238.775.662s.595.815.526.874-.416-.238-.775-.662-.595-.816-.526-.874z"/><path d="M214.5 174.997c.014-.1.4-.1.88-.023s.844.2.83.3-.4.1-.882.023-.844-.2-.83-.3zm5.575 4.653a15.67 15.67 0 0 0-2.591-.332 15.48 15.48 0 0 0-2.577.428 5.08 5.08 0 0 1 5.168-.1z"/><path d="M221.826 178.205c.05.074-.4.45-1.02.77s-1.192.455-1.223.373.464-.35 1.075-.664 1.12-.555 1.17-.478zm.206 1.795c-.026.088-.55.006-1.184-.1s-1.152-.23-1.145-.323.55-.12 1.2 0 1.154.35 1.13.434z"/><path d="M220.8 181.554c-.1.03-.3-.4-.613-.873s-.613-.844-.55-.914.487.213.825.735.423 1.03.34 1.052zm-1.646-.154c-.082-.046.06-.43.072-.914s-.088-.878 0-.918.354.356.33.93-.33.953-.402.902zM213.03 213a16.54 16.54 0 0 1-.954-1.515 23.27 23.27 0 0 0-5.8-6.28 16.75 16.75 0 0 1-1.435-1.071c.56.225 1.087.522 1.57.884a19.05 19.05 0 0 1 5.861 6.348c.323.5.578 1.06.76 1.634z"/><path d="M204.018 202.52c.068-.06.59.432 1.162 1.1a4.01 4.01 0 0 1 .914 1.31c-.068.06-.588-.432-1.162-1.1a4.01 4.01 0 0 1-.914-1.31z"/><path d="M203.503 203.343c.055-.074.558.207 1.176.544s1.125.613 1.1.7-.6-.06-1.248-.412-1.068-.763-1.02-.832zm-.218 1.04a5.61 5.61 0 0 1 2.656.4 5.6 5.6 0 0 1-2.656-.4zm.233 1.128c-.023-.088.476-.3 1.113-.452s1.172-.223 1.194-.135-.476.3-1.113.452-1.17.222-1.194.135zm2.282 3.254c-.018-.033.238-.223.72-.386a4.44 4.44 0 0 1 3.82.546c.418.294.6.546.584.574-1.503-1.024-3.396-1.294-5.126-.734z"/><path d="M204.308 208.203c0-.088.53-.135 1.162 0s1.095.39 1.062.47-.527-.025-1.13-.15-1.1-.226-1.094-.32z"/><path d="M204.19 209.2c-.048-.073.375-.41 1.01-.54s1.158 0 1.144.086-.5.108-1.077.233-1.032.303-1.078.222z"/><path d="M204.797 210.325c-.07-.058.164-.45.52-.877s.7-.726.77-.667-.164.45-.52.877-.702.724-.77.667z"/><path d="M206.125 210.218c-.1 0-.167-.386-.173-.864s.064-.867.154-.87.168.386.173.865-.064.867-.154.868zm3.635-6.286a8.97 8.97 0 0 0 .976 5.076 5.08 5.08 0 0 1-.976-5.076z"/><path d="M208.038 202.462c.064-.06.5.3.93.875s.652 1.1.576 1.14-.425-.4-.837-.946-.737-1.006-.67-1.07zm1.735-.51c.1.01.1.54.093 1.185s-.03 1.174-.123 1.183-.213-.52-.2-1.187.142-1.192.23-1.18zm1.744.947c.044.082-.34.362-.756.753s-.727.748-.806.7.127-.515.584-.938.94-.593.978-.515zm.13 1.65c-.03.088-.434.016-.913.085s-.85.237-.9.16.3-.4.86-.484.988.156.953.238zm-29.83 45.13a16.4 16.4 0 0 1-.954-1.515 23.24 23.24 0 0 0-5.8-6.28 16.45 16.45 0 0 1-1.434-1.072 6.95 6.95 0 0 1 1.569.884 19.06 19.06 0 0 1 5.862 6.349c.322.5.576 1.06.757 1.634z"/><path d="M172.804 239.203c.068-.06.59.432 1.162 1.1a4.01 4.01 0 0 1 .915 1.31c-.068.06-.588-.432-1.162-1.1a4.02 4.02 0 0 1-.915-1.31z"/><path d="M172.292 240.024c.055-.075.558.206 1.176.543s1.125.613 1.1.7-.6-.06-1.248-.412-1.07-.76-1.02-.83zm-.22 1.04a5.6 5.6 0 0 1 2.656.4 5.6 5.6 0 0 1-2.656-.4zm.233 1.128c-.023-.087.476-.3 1.113-.45s1.172-.223 1.194-.135-.476.3-1.113.45-1.172.223-1.194.135zm2.28 3.258c-.018-.034.238-.223.72-.387a4.46 4.46 0 0 1 3.82.547c.418.293.6.546.585.573a5.89 5.89 0 0 0-5.126-.733z"/><path d="M173.094 244.885c0-.088.53-.135 1.162 0s1.1.388 1.062.47-.527-.025-1.13-.15-1.1-.227-1.094-.32z"/><path d="M172.977 245.872c-.048-.073.375-.41 1.01-.54s1.158 0 1.144.086-.5.11-1.077.233-1.032.304-1.078.222z"/><path d="M173.583 247.003c-.07-.058.164-.45.52-.877s.7-.725.77-.667-.164.45-.52.877-.702.727-.77.667z"/><path d="M174.9 246.9c-.1 0-.167-.386-.173-.865s.064-.867.154-.868.168.386.173.864-.066.868-.154.87zm3.636-6.286a8.97 8.97 0 0 0 .976 5.076 5.08 5.08 0 0 1-.976-5.076z"/><path d="M176.824 239.145c.064-.06.5.3.932.876s.652 1.1.575 1.14-.425-.4-.837-.946-.737-1.008-.67-1.07zm1.736-.5c.1.01.1.54.093 1.186s-.03 1.174-.123 1.183-.213-.522-.2-1.187.14-1.193.23-1.182zm1.742.947c.044.083-.34.362-.756.753s-.727.748-.806.7.127-.516.584-.938.94-.6.978-.515zm.128 1.65c-.03.1-.434.016-.913.085s-.85.237-.9.16.3-.4.86-.484.992.16.953.24zm16.693-1.788a16.26 16.26 0 0 1 1.21-1.32c1.943-2.117 3.476-4.575 4.523-7.25a16.66 16.66 0 0 1 .654-1.667 6.96 6.96 0 0 1-.438 1.746 19.04 19.04 0 0 1-4.573 7.331 6.95 6.95 0 0 1-1.375 1.162z"/><path d="M204.845 227.983a4 4 0 0 1-.75 1.408c-.49.73-.947 1.278-1.022 1.228a4.02 4.02 0 0 1 .751-1.41c.49-.727.947-1.276 1.02-1.226z"/><path d="M203.918 227.707c.086.033-.052.593-.213 1.277s-.294 1.247-.386 1.238a2.23 2.23 0 0 1 .068-1.313c.168-.708.45-1.234.53-1.202zm-1.063.063a5.62 5.62 0 0 1 .314 2.668c-.32-.85-.428-1.766-.314-2.668z"/><path d="M201.83 228.292c.078-.045.406.383.73.955s.524 1.07.446 1.116-.405-.383-.73-.955-.525-1.07-.447-1.116zm-2.53 3.06c.028-.026.278.17.564.594a4.44 4.44 0 0 1 .483 3.829c-.172.48-.366.733-.4.715a5.89 5.89 0 0 0-.648-5.138z"/><path d="M199.44 229.766c.086-.02.27.477.307 1.12s-.085 1.16-.173 1.15-.115-.515-.154-1.13-.072-1.122.02-1.14z"/><path d="M198.458 229.913c.058-.065.494.253.8.832s.3 1.116.22 1.126-.236-.453-.51-.977-.565-.914-.5-.98z"/><path d="M197.524 230.8c.038-.082.478.04.984.27s.885.485.847.567-.477-.04-.983-.27-.884-.485-.848-.567z"/><path d="M197.978 232.052c-.025-.087.328-.264.788-.4s.854-.168.878-.08-.328.264-.788.4-.853.168-.878.08zm7.022 1.842a8.97 8.97 0 0 0-4.637 2.283c1.013-1.55 2.8-2.425 4.637-2.283z"/><path d="M205.964 231.845c.076.046-.162.573-.6 1.13s-.886.92-.95.857.27-.515.7-1.057.78-.98.858-.93zm.95 1.54c.014.1-.494.24-1.12.4s-1.14.28-1.174.194.447-.343 1.1-.5 1.2-.17 1.202-.083zm-.452 1.933c-.068.064-.44-.23-.926-.53s-.914-.5-.887-.592.53-.015 1.06.315.82.747.754.807z"/><path d="M204.9 235.874c-.093-.007-.13-.415-.324-.86s-.454-.757-.393-.83.47.17.694.7.112 1.004.023.988zm-63.127 16.092a16.69 16.69 0 0 1 1.209-1.321 23.24 23.24 0 0 0 4.523-7.251 16.56 16.56 0 0 1 .655-1.667c-.07.6-.217 1.185-.438 1.746a19.05 19.05 0 0 1-4.573 7.331 6.92 6.92 0 0 1-1.376 1.162z"/><path d="M149.495 240.504c-.153.516-.408.996-.75 1.41-.5.73-.947 1.28-1.022 1.23a4 4 0 0 1 .751-1.411c.49-.73.948-1.28 1.022-1.23z"/><path d="M148.568 240.23c.01.436-.063.87-.213 1.278-.164.684-.293 1.246-.385 1.237a2.31 2.31 0 0 1 .068-1.312c.167-.7.448-1.235.53-1.203zm-1.063.06a5.6 5.6 0 0 1 .314 2.668 5.6 5.6 0 0 1-.314-2.668z"/><path d="M146.48 240.814c.078-.044.405.383.73.955s.525 1.07.447 1.115-.405-.383-.73-.954-.525-1.067-.446-1.116zm-2.54 3.06c.028-.026.278.17.564.594a4.43 4.43 0 0 1 .483 3.828c-.172.48-.365.734-.4.715a5.89 5.89 0 0 0-.649-5.138z"/><path d="M144.093 242.287c.087-.02.27.477.307 1.12s-.085 1.158-.172 1.15-.115-.515-.153-1.13-.072-1.12.018-1.14z"/><path d="M143.106 242.435c.058-.065.494.253.79.832s.305 1.117.22 1.126-.236-.453-.51-.977-.56-.913-.5-.98z"/><path d="M142.175 243.32c.038-.082.478.04.983.27s.885.485.847.567-.478-.04-.983-.27-.884-.485-.847-.567z"/><path d="M142.63 244.574c-.025-.087.328-.263.788-.4s.853-.168.878-.082-.328.263-.788.4-.853.168-.878.082zm7.022 1.84a8.97 8.97 0 0 0-4.637 2.283c1.014-1.55 2.8-2.425 4.637-2.283z"/><path d="M150.614 244.367c.076.046-.163.573-.6 1.13s-.886.92-.95.857.27-.515.7-1.057.78-.978.858-.93zm.95 1.538c.013.1-.495.24-1.12.4s-1.14.28-1.174.194.447-.344 1.1-.5 1.2-.17 1.202-.083zm-.452 1.93c-.068.064-.438-.23-.926-.53s-.914-.5-.887-.592.53-.015 1.06.314.82.75.754.808z"/><path d="M149.554 248.396c-.093-.006-.13-.414-.323-.858s-.453-.757-.393-.83.47.17.694.7.108 1.003.022.987z"/></g><path d="M67.873 210.128a6.8 6.8 0 0 0-2.363 6.962c1.044 4.526 7.137 18.45 7.137 18.45s6.092 8.18 8.355 8.7a61.48 61.48 0 0 0 7.834.7c0 0 .7-1.392-1.22-1.74s-5.222-2.96-5.222-2.96l-4.352-5.744s6.44 5.222 8.53 5.918 10.27 1.044 10.27 1.044l3.307-6.266-1.914-4-5.048-2.612-7.66-7.833v-2.96l5.65 4s4.488 3.14 7.233.7l-4.874-4s-6.79-7.485-8.53-8.355-8.483-2.437-8.483-2.437z" class="F"/><path d="M98.128 238.504a3.5 3.5 0 0 1-.764.143 6.9 6.9 0 0 1-.908.088 11.5 11.5 0 0 1-1.209.029c-1.052-.016-2.1-.128-3.132-.337a17.88 17.88 0 0 1-7.026-3.1 17.02 17.02 0 0 1-2.365-2.081 11.37 11.37 0 0 1-.8-.911 6.96 6.96 0 0 1-.548-.729c-.16-.204-.298-.426-.4-.66.055-.04.668.885 1.92 2.138a18.8 18.8 0 0 0 2.375 2 18.92 18.92 0 0 0 6.913 3.041c1.013.218 2.042.352 3.077.4 1.775.075 2.87-.1 2.878-.03zm.88-1.908a3.58 3.58 0 0 1-.779-.11l-2.094-.45a20.2 20.2 0 0 1-6.547-2.664 14.5 14.5 0 0 1-2.879-2.649l-2-2.455-1.416-1.6a4.49 4.49 0 0 1-.537-.572c.228.132.438.294.625.48a16.86 16.86 0 0 1 1.5 1.532l2.062 2.407a15 15 0 0 0 2.836 2.577c1.982 1.24 4.15 2.156 6.42 2.7l2.064.55a3.67 3.67 0 0 1 .755.234z" class="H"/><path d="M104.368 219.148c-.302-.218-.698-.26-1.04-.112s-.58.467-.626.837a8.88 8.88 0 0 0 .083 3.051c.512 2.22 4.432 4.72 4.432 4.72l5.78 5.877-7.908.03-4.61 5.732 1.027 4.1 6.144 14.4 14.013 1.027 7-18.734s-10.434-13.355-11.63-13.867l-6.656-2.73z" class="F"/><path d="M113.03 232.25c.083.296.086.61.007.906a4.75 4.75 0 0 1-2.546 3.419 1.72 1.72 0 0 1-.87.253c1.84-.85 3.122-2.572 3.41-4.577z" class="H"/><path d="M314.608 95.076c.008-1.926 1.9-4.373 3.443-5.54a12.9 12.9 0 0 1 5.307-2.161 27.26 27.26 0 0 1 26.511 9.968c1.363 1.582 2.212 3.542 2.434 5.618.083 2.072-1.125 4.31-3.135 4.818 1.403.847 2.224 2.4 2.134 4.036s-1.074 3.1-2.56 3.78c.958 2.788-.594 5.8-2.438 8.1-7.173 8.95-19.17 13.02-30.64 12.874-3.913-.05-8-.6-11.2-2.853-4.647-3.27-6.36-9.3-7.257-14.907-.47 1.267-1.868 1.923-3.142 1.473a3.4 3.4 0 0 1-2.084-3.016c-.018-1.312.43-2.587 1.263-3.6-.81.327-1.68.48-2.555.453-.895-.047-1.666-.645-1.935-1.5-.094-.88.307-1.74 1.042-2.232.68-.536 1.5-.867 2.2-1.38 2.6-1.91 2.786-5.617 3.983-8.6 1.4-3.518 4.367-6.186 8-7.23s7.564-.342 10.622 1.897" class="B"/><path d="M345.21 110.057c-1.385-7.522-10.46-14.112-17.916-12.408l-23.935 7.6.57 4.07 7.567 50.313s4.056 16.035 17.688 13.458c12.247-2.316 10-15.278 10-15.283l-1.1-7.077s9.49-2.768 9.982-15.643c.246-6.408-1.308-16.67-2.845-25.03z" class="F"/><path d="M341.185 120.6a1.63 1.63 0 0 1-1.367 1.822 1.56 1.56 0 0 1-1.845-1.261 1.63 1.63 0 0 1 1.365-1.823 1.56 1.56 0 0 1 1.847 1.262zm2.482-4.446c-.175.235-1.512-.526-3.255-.312-1.744.188-2.916 1.24-3.13 1.048-.1-.083.054-.5.563-.962.7-.614 1.556-.998 2.475-1.1a4.3 4.3 0 0 1 2.622.512c.586.347.813.708.726.814zm-18.367 6.522a1.63 1.63 0 0 1-1.366 1.822 1.56 1.56 0 0 1-1.845-1.261 1.63 1.63 0 0 1 1.365-1.823 1.56 1.56 0 0 1 1.846 1.262zm1.565-3.94c-.176.235-1.513-.526-3.255-.312-1.744.2-2.916 1.24-3.132 1.048-.1-.083.053-.5.564-.96a4.47 4.47 0 0 1 2.475-1.1 4.3 4.3 0 0 1 2.623.512c.584.342.812.703.725.813zm7.532 11.52c.896-.362 1.83-.627 2.78-.792.44-.1.852-.224.9-.5.074-.286-.158-.67-.422-1.082q-.78-1.3-1.636-2.708l-3.794-7.147c.187-.086 2.192 2.975 4.476 6.838q.828 1.43 1.582 2.733a1.9 1.9 0 0 1 .4 1.453 1.11 1.11 0 0 1-.67.645 3.63 3.63 0 0 1-.746.185c-.94.225-1.904.348-2.87.366z" class="B"/><path d="M338.075 150.724c-5.938.804-11.983-.056-17.46-2.485 0 0 5.435 8.22 17.938 5.523z" class="H"/><path d="M329.64 130.414c.28-.05.512 1.842 2.293 3s3.77.7 3.817.962c.04.115-.405.422-1.254.546-1.107.148-2.23-.1-3.174-.7a4.13 4.13 0 0 1-1.8-2.523c-.167-.777-.01-1.27.118-1.276zm-2.765-15.272c-.16.638-1.92.374-3.972.747-2.06.32-3.7 1.155-3.988.592-.128-.27.15-.873.808-1.5a5.73 5.73 0 0 1 2.935-1.441c1.06-.2 2.156-.043 3.13.42.765.388 1.156.878 1.088 1.18zm16.152-3.222c-.22.677-1.9.543-3.73 1.056-1.846.44-3.245 1.375-3.774.893-.24-.24-.165-.874.35-1.606a4.92 4.92 0 0 1 2.746-1.819c1.096-.295 2.26-.207 3.3.25.813.387 1.197.902 1.108 1.227z" class="B"/><path d="M323.386 128.762c-.046.06-.154.054-.24-.013s-.122-.17-.076-.23.154-.054.24.013.122.17.076.23zm2.8-.208c-.075 0-.145-.155-.158-.357s.04-.37.114-.374.146.156.158.357-.04.37-.114.374zm2.542-.92c-.075 0-.137-.1-.14-.225s.058-.228.133-.228.138.1.14.225-.058.227-.133.228zm-3.25 3.693c-.056.05-.193-.013-.3-.14s-.155-.27-.1-.32.192.013.3.14.156.27.1.32zm2.203-.992c-.075-.008-.124-.118-.1-.245s.085-.224.16-.216.124.118.1.245-.082.224-.16.216zm15.173-4.026c-.07.028-.178-.077-.292-.2s-.208-.236-.175-.305.223-.043.375.12.164.36.092.385zm1.84-.252c-.073-.02-.1-.193-.04-.388s.152-.338.225-.32.1.192.038.388-.15.338-.224.32zm1.886.08c-.073-.018-.1-.165-.06-.327s.132-.28.205-.262.1.164.06.327-.132.28-.205.262zm-2.8 3.062c-.054.05-.173.014-.265-.083s-.12-.218-.066-.27.174-.014.265.083.12.216.066.27zm1.764-.76c-.075 0-.136-.1-.135-.2s.062-.2.137-.2.135.1.135.2-.06.2-.137.2zm-10.12-.193c-.075.005-.146-.142-.157-.33s.04-.342.114-.346.145.142.157.33-.04.342-.114.346zm4.34-1.735c-.06.014-.123-.022-.14-.083s.016-.124.075-.144a.12.12 0 0 1 .148.068.13.13 0 0 1-.083.16zm-5.67-.867c-.07.028-.164-.046-.2-.166s-.03-.238.04-.266.164.046.2.166.03.24-.04.266zm-2.87 2.725c-.075 0-.14-.1-.143-.25s.055-.257.13-.258.14.1.143.25-.055.256-.13.258zm2.046-6.982c-.075 0-.14-.1-.143-.25s.055-.257.13-.258.14.1.142.25-.053.256-.13.258z" class="H"/><path d="M306.823 123.9c-.253-.065-9.987-1.332-8.2 8.12s10.908 5.707 10.872 5.433-2.672-13.552-2.672-13.552z" class="F"/><path d="M306.766 134.285c-.047-.023-.143.146-.4.326-.36.242-.8.334-1.226.258-1.067-.177-2.208-1.6-2.576-3.3-.177-.806-.172-1.64.015-2.444.066-.634.44-1.195 1-1.5a.85.85 0 0 1 1.057.267c.177.24.153.44.206.447.03.02.173-.2.023-.573a1.07 1.07 0 0 0-.484-.522c-.297-.147-.64-.172-.956-.068-.76.306-1.306.984-1.442 1.79a5.68 5.68 0 0 0-.073 2.742c.42 1.893 1.733 3.49 3.174 3.627a1.8 1.8 0 0 0 1.459-.535c.25-.284.26-.505.223-.516z" class="H"/><path d="M343.92 100.3a11.46 11.46 0 0 0-7.975-4.137 34 34 0 0 0-9.19.607l-25.637 5.91 2.075 20.718 2.708 3.036 2.287 1.81c2.476-1.21 4.75-4.917 4.417-8.97 2.644-.825 4.754-2.833 5.7-5.433.92-2.593.9-5.426-.054-8.007a8.79 8.79 0 0 0 5.436 4.222c.906.26 1.864.29 2.785.088 1.266-.4 2.277-1.374 2.746-2.62s.346-2.637-.335-3.78a18.27 18.27 0 0 0 9.144 4.763c2.078.4 4.486.344 5.985-1.15 1.817-1.813 1.425-4.995-.102-7.056z" class="B"/><path d="M383.425 212.605c2.847 1 6.1-.78 7.666-3.362s1.815-5.74 1.83-8.76c.008-1.58.28-3.6 1.8-3.987 1.036-.11 2.06.295 2.738 1.085a13.3 13.3 0 0 1-5.281 22.567 13.3 13.3 0 0 1-13.019-3.267" class="G"/><path d="M360.446 158.257l-21.523-2.572c-7.61 5.568-17.13 3.48-27.674.085l-21.9 8.744 15.677 65.222-3.25 36.9 76.55-.356-7.166-82.72z" class="J"/><path d="M316.206 170.688c2.856 3.662 7.477 6.27 10.848 9.673 1.683 1.7 5.68 3.54 7.772 4.7 1.547.755 3.192 1.294 4.886 1.6q6.183 1.446 12.26 3.3c1.727.413 3.354 1.167 4.786 2.217a12.37 12.37 0 0 1 2.232 2.674c2.852 4.25 8.192 8.763 6.84 13.7-.246.9-2.237 9.034-2.237 9.034l-41.92 13.18-20.108-40.34-1.36-18.325z" class="G"/><path d="M291.23 162.9s-10.314 4.9-10.952 14.242c-.553 8.108 2.215 27.953 3.882 36.873 2.08 11.115 8.514 20.238 13.3 21.26s40.35-12.47 40.35-12.47l17.022-6.323-8.486-16.674s-34.393 11.046-35.708 10.117-19.42-47.024-19.42-47.024zm30.445 67.858c-.46-.08-.318 12.84.424 16.283s55.43-8.45 60.7-14.12 3.2-14.24 3.2-14.24l-7.583-39.42c-2.538-10.164-6.055-17.918-15.246-20.3l-2.72-.708 2.1 26.482 2.42 32.1z" class="J"/><path d="M372.51 221.447a8.95 8.95 0 0 0-1.424-1.559 9.44 9.44 0 0 0-5.3-1.988c-1.324-.075-2.653.026-3.95.3-1.494.32-2.968.726-4.414 1.22l-10.02 3.268-18.23 5.87-5.536 1.744-1.5.46c-.174.06-.352.106-.533.138a3.47 3.47 0 0 1 .513-.2l1.49-.517 5.5-1.842 18.2-5.96 10.03-3.243a37.67 37.67 0 0 1 4.456-1.2 15.04 15.04 0 0 1 4.02-.263 9.39 9.39 0 0 1 5.362 2.121 6.96 6.96 0 0 1 1.061 1.179l.217.35a.47.47 0 0 1 .07.122z" class="B"/><path d="M362.613 199.56c.448-1.74-.954-4.153-1.89-3.41-.138.1 2.684-5.147-1.153-5.408a3.05 3.05 0 0 0-.9.137c-1.184.327-2.3.9-3.253 1.653-.632.493-1.382.827-1.243-.514.22-1.88-.387-3.76-1.663-5.157-.508-.51-1.772.47-1.617 2.778.146 2.32-.515 4.62-1.87 6.51-.763 1.21-1.7 5.565-1.7 5.565l6.584 13.194s7.94-4.732 8.76-10.69c.437-3.172-.476-3.03-.056-4.66z" class="F"/><path d="M405.276 208.803c-.055 0 0-.775-.04-2.013a20.94 20.94 0 0 0-2.492-9.249l-.978-1.76c.018-.013.144.134.357.412a12.48 12.48 0 0 1 .821 1.234 18.19 18.19 0 0 1 2.522 9.36 12.55 12.55 0 0 1-.09 1.48 1.8 1.8 0 0 1-.101.536zm4.544-1.183c-.06-.015.172-.873.33-2.288a18.9 18.9 0 0 0 .106-2.492 18.64 18.64 0 0 0-1.133-5.973 19.1 19.1 0 0 0-1.012-2.28l-1.145-2.008a2.3 2.3 0 0 1 .408.474 12.23 12.23 0 0 1 .939 1.423 16.28 16.28 0 0 1 1.09 2.286 17.18 17.18 0 0 1 1.153 6.074c.006.845-.053 1.7-.178 2.526a12.14 12.14 0 0 1-.352 1.668 2.3 2.3 0 0 1-.207.59zm-16.88-16.447a17.82 17.82 0 0 0-6.155 6.923 4.28 4.28 0 0 1 .491-1.3 12.71 12.71 0 0 1 4.428-4.98 4.31 4.31 0 0 1 1.236-.642zm-.002-3.14a11.08 11.08 0 0 0-6.376 3.305c1.417-2.123 3.824-3.37 6.376-3.305z" class="B"/><path d="M397.453 198.27a12.17 12.17 0 0 0 1.388 15.37c.214.218.5.446.794.368a.89.89 0 0 0 .488-.5c2.737-5.118 1.787-11.426-2.336-15.512m-48.57-8.85c.55 1.6.382 3.362-.46 4.83a7.45 7.45 0 0 1-3.992 3.776 4.27 4.27 0 0 1-2.983.2 2.35 2.35 0 0 1-1.61-2.33c.112-.938.928-1.833.58-2.7-.288-.732-1.2-.95-1.813-1.448a2.96 2.96 0 0 1-.944-2.417 8.79 8.79 0 0 1 .642-2.6z" class="D"/><path d="M361.85 175.932a2.03 2.03 0 0 1 .049.416l.078 1.192.32 4.384 1.277 14.447 1.182 14.462a131.58 131.58 0 0 1 .215 4.393l.016 1.2a2.05 2.05 0 0 1-.016.417c-.032-.136-.048-.275-.05-.415l-.077-1.192-.32-4.384-1.277-14.45-1.182-14.46-.215-4.393-.016-1.2c-.01-.14-.004-.28.016-.417z" class="B"/><path d="M288.9 176.556a4.31 4.31 0 0 0 .49 5.523 10.31 10.31 0 0 1 1.906 1.718c.96 1.512-.08 3.5.152 5.275.492 3.748 6 4.7 7.42 8.2 1 2.49-.407 5.227-1.606 7.63-1.657 3.32-2.99 6.952-2.72 10.652s2.486 7.455 6.022 8.58a8.2 8.2 0 0 0 6.621-.884 10.27 10.27 0 0 0 4.217-5.278c1.232 1.667 2.875 2.988 4.77 3.832 1.943.828 4.2.457 5.764-.95 1.665-1.718 1.575-4.49 2.8-6.54 1.36-2.272 4.054-3.282 6.374-4.56s4.65-3.5 4.25-6.116c-4.714.62-9.338 1.794-13.776 3.5-2.914 1.12-6.177 2.474-9.022 1.2-2.423-1.094-3.674-3.743-4.727-6.184l-6.258-14.51c-2.513-5.827-5.386-12.063-10.94-15.132" opacity=".3"/><path d="M304.137 194.557c.283 1.59 2.08 5.21 2.3 6.562.295 1.79-.975 2.92-2.246 4.214-2.55 2.6-4.933 5.53-5.937 9.03s-.342 7.678 2.422 10.047a5.06 5.06 0 0 0 4.117 1.319 4.8 4.8 0 0 0 3.45-3.384 8.5 8.5 0 0 0-.23-4.666c-.244-.996-.22-2.038.072-3.02.523-.9 1.333-1.597 2.3-1.98 2.772-1.568 5.1-3.813 6.77-6.525l-1.777.694a5.37 5.37 0 0 0 .931-2.955l-.552 1.464a17.13 17.13 0 0 0-4.37-9.261" class="G"/><g class="B"><path d="M311.202 196.152c.043.036.082.077.116.122l.32.378a18.82 18.82 0 0 1 1.116 1.553 20.08 20.08 0 0 1 2.723 6.572l-.2-.036.847-1.338.206-.326v.387c.01 1.342-.34 2.662-1.018 3.82l-.163-.183 1.58-.718.337-.153-.16.335a12.28 12.28 0 0 1-3.074 3.922 18.9 18.9 0 0 1-2.149 1.584l-2.353 1.412c-.377.25-.7.57-.95.946a2.58 2.58 0 0 0-.386 1.281 11.48 11.48 0 0 0 .346 2.854c.236.993.292 2.02.167 3.034a5.51 5.51 0 0 1-1.215 2.87 4.43 4.43 0 0 1-3.726 1.468c-1.342-.157-2.575-.814-3.455-1.84-1.623-1.92-2.505-4.356-2.485-6.87.007-2.26.667-4.468 1.9-6.36l1.8-2.435a22.62 22.62 0 0 1 1.789-2.144c1.22-1.285 2.57-2.25 3.092-3.556a2.77 2.77 0 0 0 .093-1.867c-.135-.528-.306-1.047-.5-1.553l-.812-2.134c-.083-.253-.143-.513-.18-.776.016 0 .072.265.244.756s.48 1.194.867 2.107a11.99 11.99 0 0 1 .555 1.561c.204.647.177 1.344-.075 1.973a5.9 5.9 0 0 1-1.3 1.866l-1.79 1.78c-.628.675-1.215 1.39-1.755 2.136l-1.765 2.43c-1.193 1.853-1.828 4-1.83 6.214a10.24 10.24 0 0 0 2.422 6.655c.827.964 1.987 1.582 3.248 1.73a4.11 4.11 0 0 0 3.451-1.36 5.2 5.2 0 0 0 1.138-2.7 8.29 8.29 0 0 0-.161-2.926 11.7 11.7 0 0 1-.347-2.939 2.9 2.9 0 0 1 .437-1.429 3.68 3.68 0 0 1 1.037-1.032c.8-.534 1.618-.92 2.368-1.412a18.63 18.63 0 0 0 2.12-1.55 12.04 12.04 0 0 0 3.023-3.818l.176.18-1.585.708-.372.166.208-.35a7.26 7.26 0 0 0 1.011-3.689l.21.06-1 1.55-.053-.255c-.486-2.32-1.37-4.537-2.612-6.555l-1.065-1.58-.295-.4a.65.65 0 0 1-.097-.131z"/><path d="M302.396 225.565c-.02.084-.86-.223-1.387-1.126a2.07 2.07 0 0 1-.323-1.757 10.32 10.32 0 0 0 .6 1.591c.473.8 1.158 1.208 1.1 1.292zm2.634.113a2.9 2.9 0 0 1-1.727-1.334 3.52 3.52 0 0 1-.682-2.076c.106-.03.325.93.953 1.894a12.01 12.01 0 0 0 1.456 1.516zm2.766-2.128c-1.26-.203-2.305-1.082-2.722-2.287.085-.047.5.647 1.256 1.27s1.497.927 1.466 1.018z"/></g><path d="M322.33 191.088c.87 1.06 1.786 2.257 1.712 3.625-.1 1.813-1.84 3.02-3.362 4.01-3.05 1.986-6.012 4.333-7.747 7.534s-1.992 7.423.195 10.333a5.06 5.06 0 0 0 3.735 2.177 4.8 4.8 0 0 0 4.1-2.564 8.5 8.5 0 0 0 .783-4.605c-.024-1.025.226-2.038.723-2.934.704-.765 1.645-1.272 2.672-1.438a18.84 18.84 0 0 0 8.019-4.908l-1.886.294a5.37 5.37 0 0 0 1.547-2.685l-.855 1.3c.28-3.482-.51-6.966-2.267-9.986" class="G"/><path d="M314.555 218.082a2.58 2.58 0 0 1-1.047-3.185c-.032 1.15.34 2.277 1.047 3.185zm2.548.678a2.9 2.9 0 0 1-1.4-1.676 3.51 3.51 0 0 1-.217-2.174c.1-.008.116.978.52 2.055a12.03 12.03 0 0 0 1.096 1.795zm3.16-1.478c-1.185-.47-2.017-1.554-2.164-2.82.093-.027.353.74.95 1.5s1.263 1.227 1.213 1.3z" class="B"/><path d="M323.765 198.034c-.922-.608-1.778-.007-2.748.517-1.296.812-2.54 1.704-3.726 2.67-.823.593-2.088 1.59-2.057 1.96l-.03.186c.333.753 1 1.307 1.802 1.495s1.646-.01 2.28-.538c.8-.664 1.3-1.845 2.33-1.964.594-.068 1.2.264 1.775.143.848-.176 1.224-1.184 1.276-2.05.14-.908-.2-1.823-.9-2.418z" class="D"/><path d="M329.506 191.266c.034.045.064.093.087.144l.23.438a18.79 18.79 0 0 1 .755 1.759c.826 2.24 1.245 4.612 1.238 7l-.184-.077 1.4-1.4-.08.38c-.28 1.313-.908 2.526-1.82 3.512l-.12-.216 2.064-.436-.23.294a12.23 12.23 0 0 1-3.769 3.123 18.24 18.24 0 0 1-2.385 1.075c-.825.323-1.714.546-2.554.848-.863.247-1.56.882-1.888 1.717a9.06 9.06 0 0 0-.352 2.773 9.64 9.64 0 0 1-.367 2.941c-.284.992-.822 1.893-1.56 2.614a4.4 4.4 0 0 1-3.81 1.075 5.1 5.1 0 0 1-3.188-2.185c-1.303-2.116-1.79-4.633-1.375-7.082a11.73 11.73 0 0 1 2.84-5.914 22.05 22.05 0 0 1 2.2-2.022l2.132-1.746c1.4-1.067 2.9-1.685 3.9-2.632.473-.423.82-.97 1-1.577.13-.52.157-1.058.082-1.587a5.73 5.73 0 0 0-.709-2.1c-.258-.442-.446-.64-.433-.652a3.06 3.06 0 0 1 .489.618c.402.645.667 1.367.778 2.12a4.22 4.22 0 0 1-.057 1.645c-.18.64-.533 1.218-1.022 1.67-1.026 1-2.515 1.62-3.89 2.687-.7.517-1.387 1.116-2.1 1.75a22.2 22.2 0 0 0-2.168 2.011c-1.444 1.628-2.396 3.633-2.745 5.78-.182 1.155-.17 2.332.04 3.483a10.24 10.24 0 0 0 .479 1.74c.196.58.472 1.128.822 1.63a4.78 4.78 0 0 0 2.987 2.049c1.267.244 2.575-.127 3.526-1a5.63 5.63 0 0 0 1.47-2.47c.265-.927.385-1.89.356-2.852a9.34 9.34 0 0 1 .376-2.875 2.76 2.76 0 0 1 .831-1.207c.372-.3.794-.535 1.246-.692l2.56-.842c.807-.293 1.593-.643 2.35-1.048 1.424-.753 2.682-1.784 3.7-3.033l.133.216-2.1.43.28-.3a7.27 7.27 0 0 0 1.784-3.383l.193.105-1.313 1.298v-.262c.026-2.37-.357-4.724-1.133-6.962l-.7-1.773-.2-.45a.68.68 0 0 1-.064-.151z" class="B"/><g class="G"><path d="M311.296 159.205l5.9 12.205-3.394 8.406s-2.425 6.87-6.385 8.73-7.743 2.012-10.605.65-3.312-5.544-3.15-7 .288-7.52.288-7.52a11.83 11.83 0 0 1-1.648-4.479c-.08-1.94.485-9.86 4.122-10.993s14.872.001 14.872.001z"/><path d="M319.605 160.32l2.03 1.656a7.36 7.36 0 0 1 2.6 4.437c.62 3.54 1.77 6.792.13 10.066-1 2-2.1 1.76-3.555 1.6s-3.613-6.677-3.613-6.677l-5.084-7.426-.816-4.78 1.006-.3c2.52-.778 5.26-.244 7.303 1.423zM296.8 159.1l-1.584-.13a7.12 7.12 0 0 0-5.576 2.021h0a7.12 7.12 0 0 0-2.124 5.25l.3 12.186a3.52 3.52 0 0 0 3.017.716c1.508-.528 3.544-4.466 3.544-4.466l.3-8.732z"/></g><g class="B"><path d="M306.865 173.645a1.99 1.99 0 0 1 .219-1.033c.32-.82.904-1.51 1.66-1.96a2.17 2.17 0 0 1 1.461 0 3.62 3.62 0 0 1 1.054.5c.546.382.763.74.733.763s-.312-.258-.856-.567c-.316-.18-.655-.313-1.008-.4a2 2 0 0 0-1.248 0c-.38.216-.713.504-.982.847a5.1 5.1 0 0 0-.6.913l-.432.938z"/><path d="M308.7 171.137a.94.94 0 0 1 .837.373 1.78 1.78 0 0 1 .624 1.168c-.034.452-.265.865-.633 1.13a1.38 1.38 0 0 1-.42.255 1.13 1.13 0 0 1-1.145-.322c-.28-.315-.455-.7-.5-1.13-.058-.3-.033-.633.074-.93a.93.93 0 0 1 .688-.586m-4.455 13.145a2.17 2.17 0 0 0-1.04-1.26 5.12 5.12 0 0 0-4.277-.337l.068-.034-.1.045a6.16 6.16 0 0 0-1.1.479 2.36 2.36 0 0 0-.54.334 1.7 1.7 0 0 0-.6 1.355c.004.143.062.28.162.383.2.18.515.1.782.042s.635.04.642.313a.74.74 0 0 1-.152.36c-.25.6-.01 1.292.558 1.607.563.286 1.205.382 1.827.272a2.86 2.86 0 0 0 2.121-.982.6.6 0 0 0 .1-.627c-.246-.408-1.036-.065-1.28-.474-.15-.252.085-.593.37-.657.294-.034.6.033.842.188a1.66 1.66 0 0 0 .833.249 1.02 1.02 0 0 0 .66-.46c.147-.237.193-.525.123-.796z"/><path d="M316.207 173.86a3.99 3.99 0 0 1-.02.865 15.83 15.83 0 0 1-.36 2.332c-.263 1.144-.662 2.252-1.2 3.3a19.04 19.04 0 0 1-8.48 8.361c-.706.35-1.436.647-2.184.892a3.86 3.86 0 0 1-.837.217 4.95 4.95 0 0 1 .794-.336 22.38 22.38 0 0 0 2.122-.979c2.276-1.196 4.3-2.824 5.955-4.8a19.4 19.4 0 0 0 2.361-3.5 15.49 15.49 0 0 0 1.234-3.218c.485-1.913.536-3.15.603-3.143zM302.93 189.6c.01.04-.194.14-.556.15a2.17 2.17 0 0 1-2.126-1.574c-.095-.35-.058-.574-.018-.576a2.74 2.74 0 0 0 2.7 2z"/><path d="M323.993 165.456a1.51 1.51 0 0 1 .093.344l.222.994.846 3.655c.158.855.242 1.723.25 2.593a11.49 11.49 0 0 1-.056 1.46c-.078.513-.212 1.016-.4 1.5a8.95 8.95 0 0 1-.713 1.468 3.55 3.55 0 0 1-1.175 1.284 2.65 2.65 0 0 1-1.8.166 6.26 6.26 0 0 1-1.7-.666c-.536-.3-1.038-.635-1.5-1.03a5.99 5.99 0 0 1-1.126-1.374 10 10 0 0 1-1.172-3.1l-.952-5.467a8.02 8.02 0 0 0-1.66-3.275 9.44 9.44 0 0 0-1.009-.916 1.41 1.41 0 0 1 .314.171 5.02 5.02 0 0 1 .788.658 7.81 7.81 0 0 1 1.79 3.3c.466 1.534.6 3.438 1.023 5.465a9.82 9.82 0 0 0 1.151 3c.3.484.652.922 1.07 1.3a8.22 8.22 0 0 0 1.442.987 5.94 5.94 0 0 0 1.612.635c.527.142 1.088.095 1.584-.132a3.29 3.29 0 0 0 1.059-1.164 8.75 8.75 0 0 0 .7-1.412 6.84 6.84 0 0 0 .4-1.438 11.54 11.54 0 0 0 .069-1.417 15.22 15.22 0 0 0-.206-2.556l-.743-3.668-.162-1.008c-.028-.117-.042-.236-.04-.356zm-27.96-2.076c.016.028-.253.155-.63.515a4.54 4.54 0 0 0-1.146 1.85 8 8 0 0 0-.288 3.235l.357 4.067c.04 2.98-1.814 5.5-3.694 6.1-.742.253-1.556.18-2.242-.2-.18-.104-.344-.237-.482-.394-.1-.1-.127-.174-.12-.18.206.174.427.33.662.462a2.73 2.73 0 0 0 2.108.1c1.73-.6 3.487-3.032 3.44-5.886 0-1.424-.257-2.783-.33-4.044a7.93 7.93 0 0 1 .371-3.334 4.38 4.38 0 0 1 1.28-1.867 2.84 2.84 0 0 1 .514-.342c.127-.07.196-.092.2-.082z"/></g><path d="M293.883 176.93c1.85.557 3.86.08 5.26-1.252s1.98-3.312 1.52-5.19c-.188-.517-.285-1.06-.29-1.61.073-.7.583-1.3.68-1.994.06-.778-.28-1.533-.906-2-.62-.453-1.336-.757-2.093-.89-.7-.2-1.422-.208-2.116-.023-1.09.476-1.835 1.504-1.95 2.687a14.3 14.3 0 0 0 .136 3.478 39.4 39.4 0 0 1-.2 7.012" class="D"/><g class="B"><path d="M298.45 172.76c-.04.022-.187-.19-.407-.524a3.78 3.78 0 0 0-1.014-1.109c-.397-.286-.907-.366-1.372-.214-.355.123-.505.336-.547.306-.036-.01.053-.3.454-.517a1.47 1.47 0 0 1 .755-.157c.318.024.624.13.888.3.454.32.812.76 1.036 1.27.175.373.245.616.207.636z"/><path d="M296.636 171.015a.86.86 0 0 1 .764.34 1.62 1.62 0 0 1 .57 1.067 1.4 1.4 0 0 1-.578 1.031c-.113.1-.243.18-.383.233a1.04 1.04 0 0 1-1.046-.294 1.84 1.84 0 0 1-.457-1.032c-.054-.285-.03-.578.067-.85s.34-.478.628-.535m27.482-6.342c-.024.014-.18-.334-.6-.907a12.07 12.07 0 0 0-2.115-2.23 12.64 12.64 0 0 0-4.142-2.367c-.942-.3-1.93-.394-2.913-.307-1.1.036-2.153.336-3.1.874l-.01.006c-.02.013-.046.02-.07.02l-4.254.012c-.068 0-.126-.047-.142-.113-.28-1.263-.943-2.4-1.9-3.28a6.07 6.07 0 0 0-3.78-1.417l.073-.3a6.38 6.38 0 0 1 1.955 1.653c.54.7.935 1.52 1.158 2.383.02.074-.015.15-.082.186a.16.16 0 0 1-.2-.04 4.44 4.44 0 0 0-1.748-1.108 7.2 7.2 0 0 0-.786-.255l.107-.307c.24.136.44.334.578.574a5.05 5.05 0 0 1 .352.667 10 10 0 0 1 .48 1.388.16.16 0 0 1-.114.2c-.014.004-.028.006-.042.006l-2.663.026c-.032 0-.063-.01-.1-.026a7.49 7.49 0 0 0-10.048 1.446c-1.026 1.242-1.693 2.74-1.928 4.335a16.77 16.77 0 0 0-.067 4.169 53.66 53.66 0 0 1 .367 6.019c-.003.73-.083 1.46-.238 2.173a.53.53 0 0 1 0-.143l.043-.417.076-1.614c.03-1.4-.208-3.446-.462-6a16.8 16.8 0 0 1 .03-4.226c.23-1.643.9-3.2 1.96-4.476a7.78 7.78 0 0 1 10.438-1.533l-.1-.026 2.662-.03-.156.2a9.63 9.63 0 0 0-.463-1.337 2.32 2.32 0 0 0-.768-1.076l-.012-.006c-.07-.04-.1-.126-.07-.2a.16.16 0 0 1 .188-.1 7.74 7.74 0 0 1 .827.268 4.74 4.74 0 0 1 1.88 1.2l-.282.147a6.36 6.36 0 0 0-1.1-2.269c-.506-.644-1.137-1.178-1.855-1.572h-.007c-.068-.033-.104-.1-.084-.183a.15.15 0 0 1 .164-.117 6.36 6.36 0 0 1 3.991 1.5 6.56 6.56 0 0 1 1.986 3.447l-.142-.112 4.254.01-.08.027a6.89 6.89 0 0 1 3.244-.9 7.84 7.84 0 0 1 2.994.345 12.6 12.6 0 0 1 4.176 2.457 11.71 11.71 0 0 1 2.082 2.3 5.04 5.04 0 0 1 .539.955z"/></g><path d="M323.507 164.517c-1.577.207-2.796 1.486-2.926 3.07-.056 1.026.37 2.07.113 3.065-.3 1.14-1.417 1.922-1.73 3.057-.355 1.283.423 2.605 1.337 3.573.43.544 1.042.912 1.724 1.034 1.176.088 2.035-1.083 2.5-2.17 1.523-3.726 1.252-7.944-.737-11.444" class="D"/><path d="M322.095 247.052c-6.67 3.7-11.47 3.273-14.448-1.177 2.345 11.006 25.76 9.713 36.6 10.246a33.86 33.86 0 0 0 31.618-19.171c-17.68 3.9-36.095 6.195-53.78 10.102z" opacity=".3"/><path d="M321.75 231.802l-5.38-1.33-7.265 2.328s3.66 3.043 2.03 3.13-5.015-2.375-5.015-2.375l-3.515 1.048s1.464 5.836 3.59 7.5c0 0 .265 2.665 1.714 3.77 0 0 3.054 4.24 5.884 4.37s8.545-3.693 8.545-3.693z" class="F"/><path d="M353.94 216.623a.53.53 0 0 1-.133.073l-.4.184-1.57.677-5.81 2.388c-4.925 1.973-11.78 4.573-19.44 7.193a406.91 406.91 0 0 1-19.782 6.205l-6.057 1.666-1.655.424-.433.1a.53.53 0 0 1-.15.024.52.52 0 0 1 .141-.056l.424-.134 1.638-.483 6.027-1.766c5.084-1.508 12.082-3.68 19.74-6.293s14.518-5.18 19.462-7.1l7.44-2.9.417-.154c.045-.02.092-.032.14-.038z" class="B"/><path d="M344.315 173.654c-.1-.04.654-1.84 1.227-4.16l.874-4.247c.055.426.046.858-.026 1.28-.2 2.056-.715 4.07-1.5 5.982-.134.407-.328.793-.575 1.143zm12.035 9.17c-.1.032-.64-1.355-1.486-2.982l-1.57-2.94a15.03 15.03 0 0 1 3.056 5.922zm10.898-16.968c-2.1.77-4.287 1.334-6.505 1.682 2.1-.77 4.287-1.334 6.505-1.682zm2.127 21.953a67.46 67.46 0 0 1 4.18-8.417 67.53 67.53 0 0 1-4.18 8.417zm5.977 19.572c-2.136-1.874-4.124-3.9-5.948-6.088a55.36 55.36 0 0 1 5.948 6.088zm.462 18.983a56.06 56.06 0 0 1 5.347-6.688 56.2 56.2 0 0 1-5.347 6.688zm-13.58 4.397c-.1-.033.42-1.564.8-3.507l.6-3.547c.1 2.43-.38 4.846-1.4 7.053zm-16.027 7.285a39.21 39.21 0 0 1-4.017-5.919 39.24 39.24 0 0 1 4.017 5.919zm-18.35-1.738c-.298 1.9-.8 3.757-1.528 5.54.298-1.9.8-3.757 1.528-5.54zm5.697-18.73a13.33 13.33 0 0 1 3.374-7c.08.06-1 1.454-1.915 3.392s-1.362 3.633-1.46 3.608zm-18.837 10.507c-.074.066-1.03-1-2.46-1.985s-2.753-1.526-2.717-1.618a9.32 9.32 0 0 1 5.178 3.6zm-21.008-7.8a22.73 22.73 0 0 1-.983 5.344c.112-1.814.442-3.6.983-5.344zm.338-16.207a94.42 94.42 0 0 1-9.743-5.349 94.5 94.5 0 0 1 9.743 5.349zM287.56 189.3c-.077-.066 1.227-1.547 2.4-3.658s1.757-3.992 1.855-3.96a4.18 4.18 0 0 1-.3 1.26 17.01 17.01 0 0 1-3.034 5.439c-.257.353-.568.663-.92.92zm48.315-6.084a37.71 37.71 0 0 1-2.114-6.682 38.63 38.63 0 0 1 2.114 6.682zm.018-20.666a44.4 44.4 0 0 1-6.876 3.251 44.15 44.15 0 0 1 6.876-3.25zm29.787 89.824a68.71 68.71 0 0 1 3.293-8.862c-.892 3.026-1.992 5.988-3.293 8.862zm-52.1 8.95a16.68 16.68 0 0 1-4.753-5.7c.082-.05 1 1.34 2.308 2.9l2.445 2.8zm12.318-6.863c.063.07-1.195 1.264-2.613 2.855l-2.55 2.913a20.41 20.41 0 0 1 5.162-5.768zm16.52 8.448c-.086.04-.8-1.33-1.8-2.942l-1.836-2.922c1.593 1.692 2.83 3.686 3.64 5.864zm10.098-14.7a21.26 21.26 0 0 1-3.726-3.72 21.35 21.35 0 0 1 3.726 3.721zm14.458 12.972a7.7 7.7 0 0 1-1.5-.046l-3.578-.166-3.582-.01c-.496.04-.995.03-1.5-.027a6.06 6.06 0 0 1 1.48-.2c.92-.073 2.194-.12 3.6-.087l3.592.263a6 6 0 0 1 1.468.272z" class="K"/><path d="M344.78 162.847s8.438-4.642 9.77-5.92 7.386-3.576 7.386-3.576 3-2.1 10.353.812 8.32 13.9 8.32 13.9-1.19 15.71-2.816 15.438c-.628-.04-1.207-.352-1.59-.852s-.528-1.14-.402-1.757l.745-5.413-2.075-4.36s-5.33 13.964-7.048 14.376c-1.8.43-3.305-.478-3.033-2.1s4.995-13.017 4.92-13.58-6.908 11.9-6.908 11.9-1.957 2.906-3.443 2.35-2.23-1.8-1.48-3.014 5.875-15.573 5.875-15.573l-5.666 7.587-3.164 6.126a1.83 1.83 0 0 1-2.067.976c-.56-.142-.965-.625-1.01-1.2-.295-1.9 2.482-8.978 2.482-8.978l4.526-9.2-3.027 1.148s-4.38 2.245-6.275 2.553c-2.157.347-4.374-1.64-4.374-1.64z" class="L"/><path d="M363.22 154.162a17.62 17.62 0 0 0-4.966 6.693 3.64 3.64 0 0 1 .342-1.2 11.88 11.88 0 0 1 3.571-4.812 3.62 3.62 0 0 1 1.053-.681z" class="I"/><path d="M429.313 266.277c0 .1-96.112.163-214.646.163C96.092 266.44 0 266.367 0 266.277s96.092-.164 214.667-.164l214.646.164z" class="B"/><defs ><path id="B" d="M65.236 207.525c-.026-.083.47-.3 1.118-.255s1.116.307 1.08.386-.51-.028-1.1-.06-1.074.02-1.098-.07z"/><path id="C" d="M71.996 203.925c-.636 1.642-.775 3.434-.4 5.154a5.08 5.08 0 0 1 .4-5.154z"/><path id="D" d="M194.74 170.12c.1-.007.2.52.255 1.174s.02 1.193-.07 1.2-.2-.52-.255-1.174-.02-1.193.07-1.2z"/></defs></svg>